<svg width="151" height="192" viewBox="0 0 151 192" fill="none" xmlns="http://www.w3.org/2000/svg">
<g clip-path="url(#clip0_21436_2066)">
<path d="M75.4978 191.998C65.3072 191.998 55.4203 190.004 46.1087 186.07C37.1189 182.272 29.044 176.835 22.1118 169.912C15.1798 162.989 9.73618 154.924 5.9338 145.945C1.99646 136.645 0 126.77 0 116.593V0.00012207L104.891 0.000176949H151V116.594C151 126.773 149.003 136.647 145.066 145.947C141.264 154.926 135.82 162.991 128.888 169.914C121.956 176.838 113.881 182.274 104.891 186.072C95.5797 190.004 85.6928 192 75.5022 192L75.4978 191.998Z" fill="url(#paint0_linear_21436_2066)"/>
<path d="M134.612 -16.0709C118.031 -16.0709 104.539 -2.51521 104.539 14.1447C104.539 30.8047 118.031 44.3603 134.612 44.3603C151.194 44.3603 164.686 30.8047 164.686 14.1447C164.686 -2.51521 151.196 -16.0709 134.612 -16.0709ZM160.417 14.0113L159.611 13.6087C149.062 8.35558 140.374 -0.373446 135.146 -10.9702L134.745 -11.7827C148.87 -11.7112 160.346 -0.180508 160.417 14.0113ZM134.612 30.7904C130.875 23.7481 125.054 17.8994 118.042 14.1447C125.054 10.3901 130.875 4.54137 134.612 -2.50332C138.349 4.53899 144.17 10.3877 151.179 14.1424C144.168 17.897 138.347 23.7457 134.61 30.7904H134.612ZM134.484 -11.7827L134.083 -10.9702C128.855 -0.371067 120.165 8.35796 109.615 13.6111L108.809 14.0137C108.88 -0.180506 120.357 -11.7112 134.484 -11.7827ZM108.809 14.2781L109.615 14.6808C120.165 19.9339 128.852 28.6629 134.081 39.2599L134.481 40.0722C120.357 40.0008 108.88 28.4699 108.806 14.2781H108.809ZM134.745 40.0722L135.146 39.2599C140.374 28.6606 149.064 19.9315 159.611 14.6784L160.417 14.2758C160.346 28.4699 148.87 40.0008 134.742 40.0722H134.745Z" fill="white"/>
<path d="M75.4982 182.592C66.5771 182.592 57.9214 180.859 49.7696 177.438C41.8988 174.136 34.8295 169.409 28.7607 163.39C22.6919 157.371 17.9263 150.359 14.5977 142.553C11.1508 134.468 9.40294 125.882 9.40294 117.034L9.40283 107.343H101.231H141.597V117.035C141.597 125.885 139.849 134.469 136.402 142.555C133.073 150.361 128.308 157.373 122.239 163.392C116.17 169.411 109.101 174.138 101.231 177.44C93.079 180.859 84.4233 182.594 75.5016 182.594L75.4982 182.592Z" fill="white"/>
<mask id="mask0_21436_2066" style="mask-type:luminance" maskUnits="userSpaceOnUse" x="48" y="117" width="55" height="26">
<path fill-rule="evenodd" clip-rule="evenodd" d="M48.1846 117.955H102.016V142.319H48.1846V117.955Z" fill="white"/>
</mask>
<g mask="url(#mask0_21436_2066)">
<path fill-rule="evenodd" clip-rule="evenodd" d="M96.4948 141.655C96.5385 142.022 96.2558 142.319 96.2558 142.319L95.9378 142.219C95.9378 142.219 93.597 141.394 89.9962 140.336C89.9962 140.336 86.8108 139.39 85.5166 138.964C85.5166 138.964 85.2383 138.858 84.6946 138.911C84.1509 138.964 82.2698 139.107 81.0319 139.236L79.1403 139.45C75.7231 139.842 74.1611 139.91 74.1611 139.91C68.7384 140.435 67.4403 140.532 67.4403 140.532C64.5773 140.742 62.7532 141.084 58.4704 141.362L50.4077 142.169C50.4077 142.169 49.833 142.232 49.8286 142.229L49.614 142.249C49.4364 142.13 49.4148 141.992 49.4148 141.992L49.4226 141.692C49.7633 141.569 49.3805 141.202 49.3805 141.202C49.2058 141.127 49.2633 140.999 49.2633 140.999C49.2655 140.974 49.2793 140.959 49.2887 140.942C49.3064 140.911 49.3429 140.861 49.3402 140.853C49.3014 140.756 49.4801 140.409 49.4801 140.409C49.3899 140.295 49.4253 140.316 49.3346 140.202C49.2766 140.13 49.25 139.912 49.2362 139.758C49.2268 139.651 49.4176 139.439 49.3673 139.381C49.2854 139.286 49.2013 139.201 49.1206 139.1C49.0935 139.066 49.0653 138.997 49.0553 138.944C49.0481 138.906 49.0658 138.856 49.0819 138.832C49.1394 138.751 49.1416 138.747 49.0691 138.616C49.042 138.567 49.0105 138.526 48.9818 138.48C48.9187 138.377 49.1239 138.149 49.1045 138.001C49.0957 137.932 49.0769 137.859 49.0559 137.791C49.0415 137.747 49.026 137.685 49.0127 137.62C49.0077 137.607 49.0022 137.593 48.9972 137.58C48.984 137.541 48.9829 137.509 48.9889 137.481C48.9806 137.419 48.979 137.366 48.9851 137.331C48.9624 137.259 48.9397 137.186 48.9181 137.113C48.901 137.056 48.9043 137.008 48.9259 136.974C48.932 136.965 48.9381 136.954 48.9458 136.951C48.9878 136.927 48.9729 136.825 48.9912 136.768C48.9823 136.758 48.974 136.747 48.9652 136.737C48.9364 136.702 48.9248 136.676 48.9342 136.65C48.9558 136.591 48.9353 136.503 48.9403 136.434C48.9464 136.35 48.9248 136.267 48.896 136.187C48.8822 136.15 48.8739 136.109 48.8639 136.071C48.8507 136.018 48.854 135.977 48.8689 135.951C48.8921 135.911 48.9181 135.878 48.9425 135.841C48.9596 135.814 48.9563 135.745 48.9342 135.692C48.9176 135.652 48.8988 135.615 48.88 135.577C48.8518 135.535 48.823 135.494 48.7931 135.457C48.7246 135.371 48.682 135.273 48.7019 135.154C48.7157 135.074 48.7002 135.032 48.656 134.982C48.6278 134.951 48.599 134.914 48.5763 134.869C48.4895 134.698 48.4945 134.646 48.5929 134.633C48.6825 134.62 48.698 134.597 48.6692 134.412C48.6416 134.237 48.6455 134.132 48.7367 134.107C48.7854 134.094 48.8291 134.038 48.8103 133.901C48.7909 133.761 48.8512 133.508 48.7716 133.476C48.6687 133.433 48.6576 133.257 48.6001 133.151C48.599 133.15 48.6073 133.111 48.6134 133.113C48.6289 133.12 48.6466 133.145 48.6621 133.151C48.682 133.159 48.7008 133.155 48.7196 133.155C48.7057 133.115 48.6947 133.061 48.677 133.036C48.62 132.962 48.6023 132.907 48.6029 132.782C48.6034 132.636 48.5929 132.442 48.464 132.334C48.4447 132.318 48.4198 132.216 48.417 132.164C48.4148 132.128 48.4436 132.097 48.464 132.084C48.4873 132.069 48.5194 132.084 48.5437 132.074C48.5669 132.064 48.5852 132.038 48.6051 132.019C48.5868 131.974 48.5713 131.919 48.5492 131.886C48.5133 131.833 48.4734 131.789 48.4342 131.753C48.3645 131.689 48.3291 131.575 48.375 131.525C48.4502 131.442 48.3899 131.374 48.3418 131.286C48.3158 131.239 48.2893 131.187 48.271 131.131C48.261 131.1 48.2633 131.036 48.2677 131.027C48.2843 130.996 48.3435 130.885 48.4812 130.892C48.5426 130.895 48.5503 130.81 48.5481 130.789C48.5304 130.743 48.3816 130.783 48.3612 130.764C48.3086 130.715 48.3661 130.697 48.3125 130.659C48.2588 130.62 48.1709 130.397 48.1864 130.326C48.1952 130.288 48.2312 130.279 48.2583 130.271C48.2987 130.261 48.3556 130.294 48.2848 130.136C48.2389 130.034 48.2594 130.077 48.2904 129.952C48.3058 129.889 48.3379 129.915 48.3147 129.843L48.3584 129.806C48.3584 129.806 49.0426 129.705 49.1388 129.695C49.3335 129.675 49.1704 129.412 49.1704 129.412C49.1151 129.056 49.1587 128.907 49.1549 128.859C49.1311 128.576 49.0321 128.533 48.9176 128.463C48.891 128.447 48.8562 128.337 48.8407 128.268C48.8357 128.244 48.8728 128.187 48.8977 128.188C48.9381 128.19 48.953 128.166 48.9972 128.189C49.0105 128.197 49.0227 128.136 49.0365 128.146C49.0332 128.116 49.0542 128.125 49.0443 128.106C49.0149 128.051 48.9917 128.092 48.9629 128.036C48.9381 127.988 48.9121 127.928 48.9032 127.874C48.8993 127.853 48.9364 127.822 48.9602 127.816C48.9995 127.807 49.0199 127.7 48.9773 127.586C48.9458 127.503 48.9408 127.507 48.9198 127.412C48.8861 127.257 48.9032 127.161 48.9629 127.103C49.0337 127.035 49.026 126.965 48.9392 126.831C48.932 126.819 48.9248 126.806 48.9165 126.798C48.8794 126.758 48.8407 126.723 48.844 126.631C48.8479 126.523 48.9248 126.447 48.9574 126.455C48.9823 126.46 48.9961 126.402 48.9989 126.383C49.0166 126.264 49.0122 126.301 48.9812 126.238C48.9458 126.166 48.8667 126.168 48.7987 126.159C48.6659 126.143 48.6825 126.091 48.6106 125.997C48.5476 125.915 48.5271 125.883 48.5791 125.812C48.5929 125.793 48.6775 125.777 48.7013 125.78C48.7533 125.787 48.734 125.745 48.74 125.645C48.7417 125.617 48.75 125.594 48.7566 125.572C48.8092 125.403 48.8075 125.404 48.7478 125.147C48.7046 124.963 48.6742 124.793 48.745 124.668C48.7915 124.585 48.7572 124.313 48.8191 124.298C48.8556 124.29 48.8579 124.184 48.8673 124.129C48.8733 124.09 48.88 124.075 48.901 124.073C48.9148 124.072 48.9298 124.033 48.9375 124.009C48.953 123.96 48.8717 123.88 48.854 123.84C48.8219 123.769 48.7898 123.704 48.7539 123.64C48.7035 123.551 48.6648 123.48 48.74 123.446C48.7915 123.424 48.7771 123.314 48.7423 123.266C48.6643 123.158 48.6477 123.029 48.62 122.897C48.6167 122.881 48.6106 122.865 48.6095 122.85C48.6029 122.768 48.5133 122.697 48.5531 122.622C48.5741 122.582 48.6272 122.608 48.6587 122.583C48.7163 122.535 48.8407 122.465 48.7765 122.413C48.7566 122.398 48.7799 122.302 48.7644 122.279C48.7207 122.214 48.7035 122.162 48.656 122.119C48.5741 122.048 48.6106 122.08 48.5514 121.945L48.5398 121.873C48.5166 121.799 48.6078 121.794 48.6078 121.794L49.484 121.685C49.484 121.685 51.7965 121.439 53.9825 121.222C53.9825 121.222 55.6551 121.058 62.6763 120.346C62.6763 120.346 65.6432 120.087 69.0255 119.632C69.0255 119.632 71.9835 119.278 78.08 118.785C78.08 118.785 82.2405 118.358 85.2339 117.993C85.2339 117.993 86.3318 117.822 87.0974 118.203C87.0974 118.203 91.9786 120.256 93.7043 120.911L101.9 124.433C102.109 124.545 101.972 124.636 101.972 124.636C101.959 124.656 101.933 124.665 101.913 124.676C101.874 124.697 101.801 124.728 101.801 124.736C101.812 124.827 101.815 124.934 101.856 125C101.93 125.122 101.89 125.094 101.965 125.215C102.013 125.292 101.954 125.481 101.904 125.614C101.87 125.706 101.511 125.827 101.555 125.89C101.627 125.993 101.705 126.088 101.772 126.196C101.794 126.231 101.803 126.298 101.793 126.345C101.786 126.378 101.739 126.415 101.707 126.43C101.591 126.481 101.586 126.483 101.628 126.613C101.644 126.663 101.67 126.705 101.689 126.752C101.731 126.856 101.344 126.988 101.305 127.116C101.287 127.176 101.281 127.243 101.28 127.305C101.28 127.346 101.274 127.403 101.264 127.46C101.265 127.473 101.266 127.486 101.267 127.499C101.269 127.535 101.255 127.562 101.235 127.583C101.218 127.637 101.197 127.682 101.174 127.71C101.172 127.776 101.172 127.843 101.17 127.91C101.167 127.962 101.141 128.002 101.097 128.023C101.084 128.03 101.072 128.037 101.059 128.038C100.99 128.045 100.966 128.135 100.915 128.176C100.922 128.188 100.93 128.199 100.937 128.21C100.962 128.248 100.966 128.272 100.941 128.292C100.883 128.337 100.874 128.422 100.831 128.479C100.774 128.553 100.793 128.638 100.789 128.719C100.787 128.745 100.784 128.77 100.781 128.795C100.776 128.842 100.754 128.875 100.721 128.893C100.672 128.92 100.62 128.94 100.57 128.964C100.535 128.982 100.509 129.04 100.516 129.09C100.521 129.128 100.53 129.165 100.54 129.201C100.56 129.245 100.582 129.288 100.607 129.327C100.663 129.418 100.679 129.512 100.598 129.606C100.544 129.668 100.546 129.708 100.586 129.762C100.611 129.796 100.635 129.835 100.646 129.879C100.69 130.047 100.66 130.089 100.517 130.072C100.389 130.057 100.356 130.071 100.314 130.234C100.274 130.388 100.223 130.474 100.084 130.468C100.012 130.466 99.9263 130.499 99.8914 130.619C99.856 130.742 99.877 130.892 99.9727 130.943C100.097 131.008 100.033 131.158 100.067 131.262C100.067 131.264 100.038 131.293 100.031 131.29C100.012 131.28 99.9998 131.254 99.9805 131.244C99.9567 131.232 99.9285 131.23 99.9025 131.224C99.9036 131.262 99.8948 131.311 99.9091 131.336C99.9539 131.415 99.955 131.466 99.8986 131.569C99.8322 131.691 99.7603 131.856 99.8909 131.983C99.9108 132.002 99.9003 132.094 99.8815 132.138C99.8682 132.169 99.8151 132.186 99.7803 132.191C99.7421 132.196 99.7039 132.175 99.6652 132.177C99.6293 132.178 99.5922 132.195 99.5562 132.204C99.5618 132.247 99.5585 132.298 99.5745 132.331C99.601 132.386 99.6364 132.435 99.6746 132.476C99.7432 132.549 99.7415 132.655 99.6553 132.683C99.5148 132.73 99.5673 132.805 99.5955 132.891C99.6105 132.938 99.6232 132.989 99.6237 133.041C99.6243 133.07 99.5966 133.128 99.5822 133.129C99.4705 133.142 99.3555 133.265 99.2459 133.162C99.2294 133.146 99.1956 133.157 99.1696 133.156C99.1735 133.2 99.1646 133.261 99.1846 133.283C99.2354 133.339 99.299 133.376 99.3566 133.423C99.4141 133.47 99.4373 133.682 99.3831 133.737C99.3544 133.766 99.3007 133.763 99.2598 133.761C99.1989 133.758 99.1348 133.715 99.163 133.866C99.1812 133.965 99.1525 134.069 99.038 134.072C98.945 134.074 98.9356 134.176 98.9356 134.242C98.9356 134.391 98.882 134.48 98.7764 134.541C98.7227 134.573 98.6563 134.601 98.7614 134.661C98.8571 134.716 98.8991 134.814 98.8765 134.98C98.8582 135.116 98.8372 135.286 98.9644 135.377C98.9937 135.398 98.9932 135.5 98.9838 135.562C98.9805 135.584 98.9041 135.62 98.8698 135.612C98.8151 135.599 98.767 135.555 98.7172 135.522C98.7017 135.512 98.6879 135.499 98.6729 135.487C98.6641 135.514 98.6436 135.547 98.6491 135.565C98.6652 135.619 98.6967 135.665 98.7122 135.721C98.7249 135.768 98.7338 135.825 98.7227 135.873C98.7183 135.891 98.653 135.906 98.6176 135.904C98.559 135.901 98.5258 135.893 98.5346 136C98.5407 136.079 98.5075 136.168 98.4943 136.253C98.4721 136.392 98.4058 136.467 98.2968 136.498C98.169 136.535 98.148 136.595 98.2089 136.732C98.2144 136.744 98.2188 136.756 98.226 136.766C98.2592 136.81 98.2974 136.85 98.2514 136.926C98.1989 137.015 98.169 136.939 98.1264 136.924C98.0949 136.912 98.0263 136.919 98.0214 136.935C97.9992 137.006 97.9732 137.094 97.9882 137.155C98.0048 137.226 98.0617 137.278 98.1049 137.332C98.1746 137.419 98.2592 137.491 98.3162 137.59C98.3671 137.677 98.3339 137.725 98.2398 137.722C98.2066 137.721 98.1735 137.715 98.1414 137.706C98.0722 137.686 98.0108 137.696 97.9577 137.778C97.9434 137.801 97.9223 137.817 97.9024 137.834C97.7553 137.959 97.7575 137.959 97.726 138.191C97.7039 138.356 97.6701 138.507 97.5175 138.591C97.4157 138.646 97.3427 138.883 97.2498 138.878C97.1956 138.874 97.1452 138.962 97.1082 139.006C97.0822 139.036 97.0667 139.046 97.0363 139.041C97.0169 139.039 96.9931 139.008 96.9721 139.025C96.929 139.061 96.9915 139.211 96.9986 139.25C97.0114 139.318 97.0263 139.382 97.0479 139.445C97.0783 139.533 97.0999 139.605 96.9804 139.611C96.8996 139.615 96.8709 139.71 96.898 139.76C96.9583 139.873 96.9234 139.986 96.9035 140.103C96.9007 140.118 96.9013 140.133 96.8969 140.145C96.8698 140.216 96.9616 140.301 96.8736 140.352C96.8266 140.379 96.7641 140.342 96.7099 140.355C96.6087 140.377 96.508 140.411 96.409 140.451C96.3963 140.456 96.3792 140.536 96.3897 140.56C96.4217 140.627 96.4605 140.693 96.508 140.742C96.5893 140.825 96.6408 140.931 96.6624 141.061C96.6784 141.159 96.6679 141.249 96.5882 141.329C96.4544 141.464 96.4948 141.655 96.4948 141.655Z" fill="#00FFD0"/>
</g>
<path fill-rule="evenodd" clip-rule="evenodd" d="M68.9213 127.817C68.3572 127.339 67.6038 127.075 66.7996 127.075C65.3576 127.075 64.2226 127.725 63.7702 128.79C63.2901 127.531 62.1363 127.075 61.1744 127.075C60.1069 127.075 59.2258 127.537 58.7667 128.323L58.5206 127.318H57.0703V136.952H58.8469V131.025C58.8469 129.606 59.655 128.689 60.9056 128.689C61.982 128.689 62.5998 129.35 62.5998 130.503V136.952H64.3758V131.025C64.3758 129.606 65.1839 128.689 66.4351 128.689C67.5114 128.689 68.1287 129.35 68.1287 130.503V136.952H69.9053V130.074C69.9053 129.144 69.5652 128.363 68.9213 127.817Z" fill="#333333"/>
<path fill-rule="evenodd" clip-rule="evenodd" d="M83.4018 127.817C82.8376 127.339 82.0843 127.075 81.28 127.075C79.8381 127.075 78.7031 127.725 78.2506 128.79C77.7705 127.531 76.6167 127.075 75.6549 127.075C74.5874 127.075 73.7063 127.537 73.2472 128.323L73.001 127.318H71.5508V136.952H73.3274V131.025C73.3274 129.606 74.1355 128.689 75.3861 128.689C76.4624 128.689 77.0803 129.35 77.0803 130.503V136.952H78.8563V131.025C78.8563 129.606 79.6644 128.689 80.9155 128.689C81.9919 128.689 82.6092 129.35 82.6092 130.503V136.952H84.3858V130.074C84.3858 129.144 84.0456 128.363 83.4018 127.817Z" fill="#333333"/>
<path fill-rule="evenodd" clip-rule="evenodd" d="M90.8223 135.594C89.3245 135.594 87.809 134.421 87.809 132.178C87.809 130.21 89.0761 128.781 90.8223 128.781C92.5464 128.781 93.7975 130.21 93.7975 132.178C93.7975 134.421 92.3008 135.594 90.8223 135.594ZM90.803 127.075C89.4003 127.075 88.1939 127.595 87.3161 128.58C86.4876 129.509 86.0312 130.787 86.0312 132.178C86.0312 133.576 86.4876 134.857 87.3161 135.784C88.1923 136.763 89.3981 137.281 90.803 137.281C93.5685 137.281 95.5752 135.136 95.5752 132.178C95.5752 129.221 93.5685 127.075 90.803 127.075Z" fill="#333333"/>
<path fill-rule="evenodd" clip-rule="evenodd" d="M53.4502 124.188V137.281H55.4248V123.453L53.4502 124.188Z" fill="#333333"/>
<path fill-rule="evenodd" clip-rule="evenodd" d="M47.6287 149.477L47.4716 149.412C46.0391 148.819 45.0252 148.298 45.0252 146.98C45.0252 145.682 46.0313 145.003 47.0247 145.003C47.8267 145.003 48.8428 145.44 49.2388 146.399L50.9247 145.725L50.8993 145.661C50.2361 143.966 48.4849 143.207 47.0441 143.207C45.1574 143.207 43.1264 144.431 43.1264 147.117C43.1264 149.74 45.0811 150.556 46.6519 151.213L46.8444 151.294C48.449 151.974 49.5004 152.521 49.5004 153.863C49.5004 155.256 48.3621 155.879 47.2343 155.879C46.1193 155.879 44.7885 155.268 44.3958 153.552L44.3781 153.477L42.5898 154.174C43.1286 156.317 44.9068 157.694 47.158 157.694C48.2902 157.694 49.3439 157.339 50.1255 156.695C51.0088 155.966 51.4756 154.926 51.4756 153.687C51.4756 151.053 49.4319 150.215 47.6287 149.477Z" fill="#333333"/>
<path fill-rule="evenodd" clip-rule="evenodd" d="M91.2526 155.499C91.5225 155.277 91.7958 155.057 92.0696 154.836C94.5901 152.803 97.1964 150.7 97.1964 147.627C97.1964 145.219 95.5376 143.537 93.1631 143.537C91.0767 143.537 88.8311 145 88.8311 148.211C88.8311 148.366 88.8411 148.538 88.8565 148.645L90.5574 147.958C90.5574 146.191 91.8118 145.267 93.0508 145.267C94.2555 145.267 95.4707 146.069 95.4707 147.86C95.4707 150.18 93.2101 151.996 90.0817 154.509C89.6353 154.867 89.1713 155.24 88.6923 155.632L88.6641 155.655V157.366H97.5498V155.499H91.2526Z" fill="#333333"/>
<path fill-rule="evenodd" clip-rule="evenodd" d="M69.7997 152.262C69.7997 154.522 68.2897 155.705 66.7979 155.705C65.2874 155.705 63.758 154.522 63.758 152.262C63.758 150.277 65.0362 148.838 66.7979 148.838C68.5369 148.838 69.7997 150.277 69.7997 152.262ZM66.7791 147.158C64.0135 147.158 62.0068 149.305 62.0068 152.262C62.0068 155.219 64.0135 157.365 66.7791 157.365C69.5441 157.365 71.5508 155.219 71.5508 152.262C71.5508 149.305 69.5441 147.158 66.7791 147.158Z" fill="#333333"/>
<path fill-rule="evenodd" clip-rule="evenodd" d="M79.0571 153.036C79.0571 154.815 77.7473 155.775 76.5155 155.775C75.5774 155.775 74.5757 155.218 74.5757 153.655V147.488H72.8672V153.655C72.8672 156.394 74.6499 157.365 76.177 157.365C77.4049 157.365 78.4868 156.78 79.0482 155.824L79.374 157.14H80.7656V147.488H79.0571V153.036Z" fill="#333333"/>
<path fill-rule="evenodd" clip-rule="evenodd" d="M85.3625 144.195L83.6778 144.88V147.065H82.082V148.684H83.6778V154.199C83.6778 156.954 85.1645 157.365 86.0506 157.365C86.4444 157.365 86.8515 157.3 87.2951 157.167L87.3477 157.151V155.389L87.2359 155.465C86.976 155.641 86.6718 155.746 86.4218 155.746C85.7486 155.746 85.3625 155.232 85.3625 154.337V148.684H87.3477V147.065H85.3625V144.195Z" fill="#333333"/>
<path fill-rule="evenodd" clip-rule="evenodd" d="M106.138 152.231V148.196L104.381 148.889V152.231H100.437L105.246 143.866H103.295L98.208 152.691V154.043H104.381V157.365H106.138V154.043H108.41V152.231H106.138Z" fill="#333333"/>
<path fill-rule="evenodd" clip-rule="evenodd" d="M60.0914 154.184C59.582 155.115 58.6295 155.686 57.5593 155.686C56.0747 155.686 54.5769 154.621 54.5769 152.243C54.5769 150.603 55.474 148.838 57.4437 148.838C58.4254 148.838 59.2988 149.354 59.7612 150.197L61.4255 149.57L61.3962 149.508C60.7048 148.059 59.1899 147.158 57.4437 147.158C56.2141 147.158 55.0752 147.608 54.2373 148.426C53.2914 149.347 52.792 150.674 52.792 152.262C52.792 155.768 55.2235 157.365 57.4818 157.365C59.238 157.365 60.7939 156.424 61.644 154.849L61.6778 154.786L61.6634 154.78L60.0914 154.184Z" fill="#333333"/>
<path d="M53.4996 94.8161C51.7606 94.8161 50.5128 93.8732 50.0747 92.2664L50.9907 91.8547C51.3358 93.1959 52.1854 93.8865 53.5129 93.8865C54.7209 93.8865 55.4775 93.2225 55.4775 92.1734C55.4775 91.1907 55.0395 90.7658 53.2208 90.0221C51.3624 89.2785 50.6853 88.5747 50.6853 87.4194C50.6853 86.0383 51.7739 85.0689 53.3668 85.0689C54.3492 85.0689 55.0527 85.3345 55.6501 85.932L55.1058 86.7023C54.6678 86.2375 54.0837 85.9984 53.3403 85.9984C52.3712 85.9984 51.7075 86.5562 51.7075 87.3795C51.7075 88.1232 52.1456 88.5348 53.5792 89.1191C55.8625 90.0354 56.5528 90.726 56.5528 92.0672C56.5528 93.7139 55.3315 94.8161 53.4996 94.8161ZM64.61 91.0447V91.3767H58.9018C58.9815 92.864 60.0169 93.9529 61.3842 93.9529C62.6188 93.9529 63.2294 93.342 63.5745 92.8374L64.3047 93.3819C63.8002 94.2052 62.871 94.8161 61.3311 94.8161C59.3001 94.8161 57.8664 93.2756 57.8664 91.1243C57.8664 88.9598 59.2868 87.4326 61.2913 87.4326C63.2294 87.4326 64.61 88.9332 64.61 91.0447ZM61.2913 88.2958C60.0833 88.2958 59.1275 89.2519 58.9411 90.5932H63.548C63.402 89.2652 62.486 88.2958 61.2913 88.2958ZM66.7041 86.3039C66.3058 86.3039 65.9872 85.9984 65.9872 85.6C65.9872 85.2149 66.3058 84.8962 66.7041 84.8962C67.089 84.8962 67.3944 85.2149 67.3944 85.6C67.3944 85.9984 67.089 86.3039 66.7041 86.3039ZM66.1996 94.6169V87.6584H67.1952V94.6169H66.1996ZM71.7407 93.9396C72.0991 93.9396 72.431 93.8334 72.6965 93.6873V94.5372C72.3514 94.6965 71.9531 94.7762 71.5549 94.7762C70.3071 94.7762 69.6831 94.1388 69.6831 92.6249V88.4153H68.5017V87.6584H69.6831V85.6532L70.6787 85.4407V87.6584H72.4177V88.4153H70.6787V92.5187C70.6787 93.4881 70.9973 93.9396 71.7407 93.9396ZM78.528 93.7271H83.0812V94.6169H76.9881V93.9529L79.9484 91.0048C81.0634 89.9026 81.913 88.8934 81.913 87.6584C81.913 86.5429 81.2227 85.9984 80.1209 85.9984C79.3112 85.9984 78.7669 86.3039 78.289 86.9546L77.5722 86.3039C78.143 85.5469 79.0059 85.0689 80.1475 85.0689C81.8201 85.0689 82.9617 86.0117 82.9617 87.6584C82.9617 89.3449 81.8201 90.5135 80.851 91.4563L78.528 93.7271ZM87.8966 94.8161C85.6001 94.8161 84.4585 92.9835 84.4585 89.9425C84.4585 86.9014 85.6001 85.0689 87.8966 85.0689C90.14 85.0689 91.2949 86.9014 91.2949 89.9425C91.2949 92.9835 90.14 94.8161 87.8966 94.8161ZM87.8966 93.8865C89.5029 93.8865 90.2462 92.5054 90.2462 89.9425C90.2462 87.3928 89.5029 85.9984 87.8966 85.9984C86.2904 85.9984 85.5072 87.3928 85.5072 89.9425C85.5072 92.5054 86.2904 93.8865 87.8966 93.8865ZM94.3304 93.7271H98.8837V94.6169H92.7906V93.9529L95.7508 91.0048C96.8659 89.9026 97.7155 88.8934 97.7155 87.6584C97.7155 86.5429 97.0252 85.9984 95.9234 85.9984C95.1136 85.9984 94.5694 86.3039 94.0915 86.9546L93.3746 86.3039C93.9455 85.5469 94.8083 85.0689 95.9499 85.0689C97.6226 85.0689 98.7642 86.0117 98.7642 87.6584C98.7642 89.3449 97.6226 90.5135 96.6535 91.4563L94.3304 93.7271ZM106.728 91.536V92.4125H105.374V94.6169H104.392V92.4125H99.7321V91.6954L103.861 85.2681H104.949L100.914 91.536H104.392V89.2652L105.374 89.0527V91.536H106.728Z" fill="#333333"/>
<path d="M35.809 49.0724C41.3495 49.0724 44.2224 51.0079 44.2224 55.5534C44.2224 60.3334 41.2322 62.1516 35.809 62.1516H31.998V69.7176H29.6821V49.0724H35.809ZM35.6917 60.2161C39.7372 60.2161 41.8479 59.1604 41.8479 55.5534C41.8479 52.0343 39.6492 50.9786 35.6624 50.9786H31.998V60.2161H35.6917ZM59.7981 68.0754C60.2964 68.0754 60.7361 67.8995 61.0293 67.7528V69.3951C60.5896 69.7176 59.9153 69.8643 59.2704 69.8643C57.4529 69.8643 56.632 68.5739 56.632 66.8731V66.7558H56.5734C55.8112 68.6619 53.9351 70.0989 51.2381 70.0989C48.16 70.0989 46.1666 68.3393 46.1666 65.6414C46.1666 62.3569 49.0981 61.3598 53.4074 60.744L56.4855 60.3041V59.9815C56.4855 57.1369 55.3715 55.7586 52.7331 55.7586C50.7397 55.7586 49.5964 56.6091 48.717 58.0754L47.0167 56.961C47.9841 55.1135 49.831 53.8525 52.7331 53.8525C56.6614 53.8525 58.6548 55.7293 58.6548 59.7176V66.2865C58.6548 67.6355 59.0359 68.0754 59.7981 68.0754ZM51.4433 68.1927C54.1696 68.1927 56.4855 66.5211 56.4855 62.2689V61.917L53.4367 62.3862C50.5052 62.7968 48.4238 63.3247 48.4238 65.5241C48.4238 67.3129 49.6551 68.1927 51.4433 68.1927ZM63.5714 69.7176V54.351H65.0958L65.6528 57.5768H65.7114C66.6495 54.7322 68.7602 53.8525 70.4604 53.8525C71.3985 53.8525 71.8675 54.0284 72.0434 54.1164L71.7503 56.1399C71.4278 55.9639 70.9295 55.8466 70.2259 55.8466C67.4996 55.8466 65.77 58.4859 65.77 62.5035V69.7176H63.5714ZM80.6173 68.222C81.4088 68.222 82.1416 67.9874 82.7279 67.6648V69.5417C81.9657 69.8936 81.0863 70.0696 80.2068 70.0696C77.4512 70.0696 76.0734 68.6619 76.0734 65.3188V56.0226H73.4644V54.351H76.0734V49.9228L78.272 49.4536V54.351H82.1123V56.0226H78.272V65.0842C78.272 67.225 78.9756 68.222 80.6173 68.222ZM85.7579 69.7176V54.351H87.2823L87.8686 57.1076H87.9272C88.7773 54.9962 90.5069 53.8525 93.028 53.8525C96.1647 53.8525 98.2461 55.7586 98.2461 59.7469V69.7176H96.0475V59.9815C96.0475 57.0783 94.8455 55.7586 92.5003 55.7586C89.8034 55.7586 87.9565 57.5475 87.9565 61.5944V69.7176H85.7579ZM116.658 61.829V62.5622H104.052C104.228 65.8467 106.515 68.2514 109.534 68.2514C112.26 68.2514 113.609 66.9024 114.371 65.788L115.983 66.9904C114.869 68.8085 112.817 70.1575 109.417 70.1575C104.932 70.1575 101.766 66.7558 101.766 62.005C101.766 57.2249 104.902 53.8525 109.329 53.8525C113.609 53.8525 116.658 57.1663 116.658 61.829ZM109.329 55.7586C106.661 55.7586 104.55 57.8701 104.14 60.832H114.312C113.99 57.8994 111.967 55.7586 109.329 55.7586ZM120.169 69.7176V54.351H121.693L122.25 57.5768H122.309C123.247 54.7322 125.357 53.8525 127.058 53.8525C127.996 53.8525 128.465 54.0284 128.641 54.1164L128.348 56.1399C128.025 55.9639 127.527 55.8466 126.823 55.8466C124.097 55.8466 122.367 58.4859 122.367 62.5035V69.7176H120.169Z" fill="#333333"/>
<path d="M31.6223 41.3853C27.3716 41.3853 24.5574 39.5378 23.3262 35.8134L26.4922 34.3471C27.7527 37.1917 29.2771 38.3647 31.6223 38.3647C33.6157 38.3647 34.9349 37.2504 34.9349 35.5495C34.9349 33.9072 33.9675 33.0861 30.2738 31.5612C26.2284 29.8603 24.5574 28.0128 24.5574 25.1389C24.5574 21.913 27.1371 19.6256 31.2119 19.6256C33.3519 19.6256 35.0815 20.2415 36.5472 21.5318L34.1434 24.0538C33.3519 23.1447 32.2673 22.6462 31.0947 22.6462C29.4237 22.6462 28.1925 23.6433 28.1925 24.9629C28.1925 26.5172 29.1012 27.309 32.5311 28.6873C36.9577 30.4468 38.6286 32.265 38.6286 35.1976C38.6286 38.8046 35.7264 41.3853 31.6223 41.3853ZM43.5121 22.8515C42.3101 22.8515 41.3721 21.8544 41.3721 20.74C41.3721 19.5377 42.3101 18.5992 43.5121 18.5992C44.714 18.5992 45.6521 19.5377 45.6521 20.74C45.6521 21.8544 44.714 22.8515 43.5121 22.8515ZM41.8118 40.9454V25.3441H45.2416V40.9454H41.8118ZM49.3983 40.9454V20.0069L52.8281 19.3031V40.9454H49.3983ZM65.75 41.3853C62.8478 41.3853 61.0596 39.6844 60.2974 38.4234H60.2388L59.4766 40.9454H56.9848V20.0069L60.4146 19.3031V27.5436H60.4733C61.4993 26.1946 63.2582 24.8749 66.0724 24.8749C70.1179 24.8749 73.2546 28.2181 73.2546 32.9102C73.2546 37.8662 70.1472 41.3853 65.75 41.3853ZM65.193 38.5114C67.7727 38.5114 69.7075 36.1946 69.7075 33.0568C69.7075 29.9776 67.7141 27.7488 65.2223 27.7488C62.2615 27.7488 60.356 29.9776 60.356 33.0568C60.356 36.1946 62.3494 38.5114 65.193 38.5114ZM91.3724 33.1741V34.2005H79.0894C79.4119 36.6932 81.2587 38.5114 83.6332 38.5114C86.1543 38.5114 87.151 37.397 88.265 35.8721L90.7275 37.8369C89.379 40.007 87.2683 41.3853 83.6919 41.3853C78.9135 41.3853 75.5716 37.9835 75.5716 33.2034C75.5716 28.306 78.8842 24.8749 83.6332 24.8749C88.1771 24.8749 91.3724 28.306 91.3724 33.1741ZM83.6332 27.7488C81.4053 27.7488 79.6464 29.3618 79.2067 31.7078H87.8546C87.5322 29.3911 85.8319 27.7488 83.6332 27.7488ZM94.5158 40.9454V25.3441H97.0075L97.7404 28.7166H97.799C98.8251 25.4614 100.906 24.9043 102.372 24.9043C103.574 24.9043 104.072 25.1389 104.336 25.2562L103.838 28.3647C103.486 28.1887 102.871 27.9541 102.02 27.9541C99.939 27.9541 97.9456 29.5964 97.9456 34.0245V40.9454H94.5158Z" fill="#333333"/>
</g>
<defs>
<linearGradient id="paint0_linear_21436_2066" x1="131.377" y1="-17.0817" x2="5.05067" y2="88.6983" gradientUnits="userSpaceOnUse">
<stop stop-color="#AFAFAF"/>
<stop offset="0.479167" stop-color="#E5E5E5"/>
<stop offset="1" stop-color="#A6A6A6"/>
</linearGradient>
<clipPath id="clip0_21436_2066">
<rect width="151" height="192" fill="white"/>
</clipPath>
</defs>
</svg>
