<svg width="237" height="37" viewBox="0 0 237 37" fill="none" xmlns="http://www.w3.org/2000/svg"><g clip-path="url(#clip0_93_3)"><mask id="mask0_93_3" style="mask-type:luminance" maskUnits="userSpaceOnUse" x="0" y="0" width="237" height="37"><path d="M236.25 0H0V37H236.25V0Z" fill="white"/></mask><g mask="url(#mask0_93_3)"><path d="M51.2275 6.9283C55.5952 6.9283 58.6217 7.73086 60.3069 9.336C61.9921 10.9411 62.8292 13.5818 62.8183 17.2579C62.8183 21.3782 61.9703 24.472 60.2741 26.5393C58.578 28.6067 55.7754 29.6495 51.8663 29.6677H44.1081C43.9735 29.3286 43.9014 28.9679 43.8952 28.6031C43.8871 28.5139 43.8979 28.4239 43.9271 28.3392C43.9563 28.2545 44.0031 28.177 44.0644 28.1117C44.2219 27.9959 44.4154 27.9398 44.6104 27.9534H45.8607C45.9371 26.3992 45.9753 22.4337 45.9753 16.0568C45.9753 12.65 45.9371 10.1731 45.8607 8.62625H44.1245C43.991 8.29249 43.9189 7.93738 43.9116 7.57799C43.9025 7.48622 43.9128 7.39355 43.942 7.30605C43.9712 7.21855 44.0185 7.1382 44.0808 7.07025C44.2383 6.95441 44.4318 6.8983 44.6268 6.91192L51.2275 6.9283ZM49.6824 9.52709C49.606 11.205 49.5678 15.3252 49.5678 21.8877C49.5678 24.643 49.7079 26.2227 49.9882 26.6267C50.2684 27.0307 51.2584 27.2345 52.9582 27.2382C54.9237 27.2382 56.3923 26.6212 57.3641 25.3983C58.336 24.1753 58.8273 21.8823 58.8273 18.541C58.8273 15.1087 58.2595 12.721 57.1239 11.3779C55.9883 10.0348 54.2194 9.36148 51.8171 9.35784C51.1019 9.34894 50.3873 9.40559 49.6824 9.52709Z" fill="black"/><path d="M77.5271 14.3915C78.5062 15.367 78.9957 16.9776 78.9957 19.2233C79.0632 19.9541 78.8698 20.6852 78.4498 21.2871C78.1058 21.6801 77.3579 21.8712 76.1677 21.8712H68.9937C68.9317 23.3653 69.3013 24.8456 70.0583 26.1352C70.7517 27.1725 71.9693 27.6858 73.7218 27.6858C75.3303 27.6922 76.9073 27.2416 78.2696 26.3864C78.6945 26.7796 78.9459 27.3256 78.9684 27.9041C78.9684 28.6321 78.3679 29.1544 77.1667 29.4711C75.8342 29.7854 74.4683 29.9358 73.0993 29.9187C70.3222 29.9187 68.3203 29.3164 67.0937 28.1116C65.8671 26.9068 65.2611 24.8777 65.2756 22.0241C65.2756 19.2106 65.9581 16.9921 67.323 15.3688C68.6879 13.7455 70.5862 12.932 73.0175 12.9283C75.0594 12.9283 76.5553 13.4142 77.5271 14.3915ZM69.9383 16.3788C69.3741 17.1723 69.0647 18.4135 69.0101 20.1023H70.6863C72.4716 20.1023 73.6835 20.0641 74.3332 19.9931C74.9829 19.9221 75.3542 19.802 75.4579 19.6328C75.5856 19.3391 75.6382 19.0182 75.6108 18.6992C75.6706 17.7587 75.3809 16.8293 74.7973 16.0895C74.4939 15.7679 74.1231 15.5175 73.7116 15.3561C73.3001 15.1947 72.8579 15.1263 72.4169 15.1559C71.9339 15.1327 71.4531 15.2328 71.0194 15.4468C70.5858 15.6607 70.2138 15.9815 69.9383 16.3788Z" fill="black"/><path d="M85.3231 14.6428C86.1294 14.1266 86.9946 13.7087 87.9001 13.398C88.9069 13.0736 89.9598 12.915 91.0176 12.9284C92.9939 12.9284 94.4626 13.4744 95.4344 14.5936C96.4062 15.7128 96.8812 17.5527 96.8812 20.1406C96.8812 23.4928 96.2279 25.9752 94.9212 27.5876C93.6145 29.2 91.68 30.0135 89.1176 30.028C88.5295 30.0354 87.9417 29.9971 87.3596 29.9134C86.957 29.8525 86.5593 29.7631 86.1694 29.6459C86.1694 31.7715 86.2131 33.6605 86.3004 35.313H88.4461C88.5779 35.6064 88.6449 35.9249 88.6426 36.2466C88.6548 36.3562 88.6452 36.4672 88.6142 36.5731C88.5833 36.6789 88.5317 36.7777 88.4624 36.8635C88.2588 36.9957 88.0158 37.0536 87.7745 37.0273H81.0319C80.9021 36.7098 80.8318 36.3711 80.8244 36.0282C80.815 35.9297 80.8262 35.8303 80.8572 35.7363C80.8882 35.6423 80.9384 35.5558 81.0046 35.4822C81.0854 35.4157 81.1787 35.3659 81.279 35.3359C81.3793 35.3059 81.4846 35.2963 81.5887 35.3075H82.7134C82.8008 33.6551 82.8445 31.4111 82.8445 28.5758V21.4782C82.8445 18.2024 82.7189 16.3025 82.4677 15.7784C82.3356 15.5182 82.1276 15.3042 81.8712 15.1648C81.6148 15.0254 81.3221 14.9671 81.0319 14.9976C80.896 14.6935 80.8253 14.3643 80.8244 14.0313C80.8097 13.9118 80.8349 13.7908 80.8962 13.6871C80.9574 13.5834 81.0512 13.5029 81.1629 13.458C82.543 13.2862 83.9324 13.1987 85.3231 13.196C85.3867 13.6761 85.3867 14.1626 85.3231 14.6428ZM86.1694 26.8232C86.6088 27.1151 87.0865 27.3448 87.5889 27.5057C88.1739 27.6867 88.7837 27.7751 89.396 27.7677C90.8519 27.7677 91.8511 27.3182 92.3934 26.4192C92.9357 25.5202 93.2141 23.966 93.2287 21.7567C93.2287 19.3435 92.9339 17.6456 92.3552 16.6519C92.0721 16.1644 91.6581 15.7659 91.1602 15.5015C90.6624 15.2372 90.1004 15.1174 89.538 15.156C88.9318 15.1491 88.3322 15.2817 87.7854 15.5436C87.2409 15.8133 86.8123 16.271 86.5789 16.8321C86.2654 17.6402 86.1241 18.5049 86.1639 19.3708L86.1694 26.8232Z" fill="black"/><path d="M100.638 28.0843C99.546 26.814 99 24.8886 99 22.308C99 19.338 99.6715 17.0322 101.015 15.3906C102.358 13.7491 104.294 12.9283 106.824 12.9283C109.182 12.9283 110.915 13.5653 112.021 14.8392C113.128 16.1131 113.683 18.0458 113.686 20.6374C113.686 23.5965 113.015 25.8968 111.672 27.5383C110.329 29.1799 108.385 30.0097 105.841 30.0279C103.482 30.0279 101.748 29.3801 100.638 28.0843ZM109.149 26.3372C109.695 25.3818 109.979 23.9131 109.979 21.9204C109.979 19.6346 109.694 17.9366 109.122 16.8265C108.853 16.2869 108.43 15.8397 107.906 15.5421C107.382 15.2445 106.78 15.11 106.179 15.1559C105.642 15.1192 105.105 15.2345 104.63 15.4884C104.155 15.7423 103.761 16.1246 103.493 16.5918C102.947 17.5472 102.663 19.0213 102.663 21.025C102.663 23.3035 102.947 24.996 103.515 26.1025C103.789 26.636 104.214 27.0763 104.738 27.3679C105.262 27.6595 105.86 27.7891 106.458 27.7403C106.993 27.7806 107.528 27.6705 108.004 27.4226C108.479 27.1747 108.876 26.7987 109.149 26.3372Z" fill="black"/><path d="M126.215 13.3487C127.061 13.6326 127.482 14.0912 127.482 14.7246C127.453 15.4518 127.162 16.1442 126.663 16.6737C124.533 15.6654 122.85 15.1595 121.613 15.1559C120.949 15.1093 120.287 15.2798 119.729 15.6418C119.518 15.8059 119.351 16.0191 119.241 16.2627C119.132 16.5063 119.084 16.773 119.101 17.0395C119.094 17.3372 119.154 17.6328 119.277 17.9042C119.399 18.1755 119.582 18.4156 119.811 18.6064C120.702 19.2343 121.683 19.7239 122.721 20.0586C124.153 20.4975 125.49 21.2013 126.663 22.1333C127.064 22.5141 127.378 22.9783 127.581 23.4934C127.783 24.0085 127.871 24.5618 127.836 25.1143C127.873 25.8243 127.727 26.5317 127.414 27.1699C127.1 27.808 126.63 28.3557 126.046 28.7613C124.852 29.6057 123.152 30.0279 120.946 30.0279C119.649 30.0693 118.353 29.9464 117.086 29.6622C116.202 29.4219 115.76 28.9087 115.76 28.1334C115.776 27.5201 116.002 26.9308 116.399 26.4628C118.004 27.2893 119.775 27.7446 121.58 27.795C122.357 27.8495 123.132 27.6769 123.813 27.2981C124.068 27.1136 124.27 26.865 124.398 26.5774C124.527 26.2898 124.577 25.9735 124.544 25.6602C124.548 25.2786 124.449 24.9029 124.257 24.5732C124.065 24.2435 123.787 23.972 123.452 23.7876C122.332 23.1477 121.162 22.5999 119.953 22.1497C118.732 21.7529 117.616 21.0868 116.688 20.2006C116.077 19.482 115.758 18.5606 115.793 17.6182C115.782 16.9462 115.939 16.2821 116.249 15.6861C116.56 15.0902 117.015 14.5814 117.572 14.2059C118.752 13.3378 120.499 12.9065 122.803 12.9065C123.956 12.8743 125.108 13.0235 126.215 13.3487Z" fill="black"/><path d="M137.081 27.9534C137.218 28.2454 137.289 28.5643 137.288 28.887C137.301 28.9966 137.292 29.1077 137.261 29.2137C137.23 29.3197 137.178 29.4184 137.108 29.5039C136.901 29.6382 136.654 29.6961 136.409 29.6677H130.005C129.881 29.3489 129.814 29.0106 129.808 28.6686C129.79 28.4714 129.851 28.275 129.978 28.1226C130.146 27.9902 130.359 27.9276 130.573 27.9479H131.779C131.856 26.4028 131.894 24.5957 131.894 22.4883C131.894 19.955 131.894 18.268 131.839 17.4163C131.844 16.8193 131.752 16.2256 131.567 15.6583C131.519 15.52 131.44 15.3942 131.337 15.2903C131.234 15.1863 131.109 15.1069 130.971 15.0577C130.662 14.9742 130.342 14.9356 130.021 14.943C129.876 14.6951 129.802 14.4115 129.808 14.1241C129.789 13.9313 129.844 13.7383 129.961 13.5842C130.079 13.4301 130.251 13.3265 130.442 13.2942C131.256 13.1626 132.08 13.1114 132.904 13.1414C133.489 13.1192 134.075 13.1613 134.651 13.2669C134.779 13.2797 134.901 13.3317 134.998 13.4156C135.096 13.4996 135.165 13.6116 135.197 13.7365C135.251 14.1252 135.273 14.5179 135.263 14.9103V22.521C135.263 24.6011 135.301 26.4083 135.377 27.9807L137.081 27.9534ZM131.468 9.87652C131.294 9.71017 131.159 9.50748 131.072 9.28289C130.985 9.05829 130.949 8.81732 130.966 8.57713C130.958 8.29781 131.012 8.02022 131.125 7.76437C131.237 7.50852 131.405 7.28078 131.616 7.09756C132.127 6.70139 132.766 6.50708 133.412 6.5516C133.999 6.49232 134.586 6.66255 135.05 7.02659C135.215 7.19295 135.345 7.39196 135.429 7.61096C135.514 7.82996 135.552 8.06416 135.541 8.29868C135.551 8.571 135.502 8.84227 135.398 9.09389C135.293 9.34551 135.135 9.57152 134.935 9.75641C134.395 10.1667 133.722 10.3613 133.046 10.3023C132.486 10.3569 131.925 10.2056 131.468 9.87652Z" fill="black"/><path d="M140.805 13.3434L142.126 8.60986C142.535 8.73381 142.928 8.90803 143.294 9.12853C143.586 9.30066 143.829 9.54272 144.004 9.83282C144.157 10.1058 144.228 11.0503 144.228 12.6609V13.3434H149.595C149.727 13.7167 149.793 14.1102 149.791 14.5063C149.806 14.6203 149.797 14.736 149.766 14.8467C149.735 14.9574 149.683 15.0607 149.611 15.1505C149.394 15.2801 149.141 15.3357 148.89 15.3088H144.228V23.1871C144.228 25.0652 144.397 26.3009 144.735 26.8942C144.88 27.1752 145.098 27.4118 145.366 27.579C145.634 27.7463 145.943 27.8379 146.259 27.8442C147.136 27.8253 147.994 27.5909 148.759 27.1617C148.996 27.5155 149.121 27.9318 149.12 28.3574C149.126 28.6359 149.033 28.9077 148.859 29.1245C148.684 29.3414 148.438 29.4893 148.164 29.5421C147.182 29.7823 146.171 29.8834 145.161 29.8424C143.669 29.8424 142.577 29.5312 141.886 28.9088C141.209 28.2864 140.865 27.1235 140.865 25.4256V21.5055C140.865 19.369 140.806 17.3034 140.69 15.3088H139.112C138.985 14.9323 138.919 14.5379 138.915 14.1405C138.896 13.9229 138.961 13.7061 139.096 13.5345C139.178 13.464 139.273 13.4108 139.377 13.378C139.48 13.3451 139.588 13.3334 139.696 13.3434H140.805Z" fill="black"/><path d="M158.717 6.92832C163.085 6.92832 166.112 7.73088 167.797 9.33602C169.482 10.9411 170.319 13.5818 170.308 17.2579C170.308 21.3781 169.46 24.4719 167.764 26.5393C166.068 28.6067 163.269 29.644 159.367 29.6513H151.609C151.474 29.3122 151.402 28.9515 151.396 28.5867C151.389 28.4971 151.4 28.4069 151.43 28.3222C151.461 28.2375 151.508 28.1601 151.571 28.0953C151.728 27.9795 151.922 27.9234 152.117 27.937H153.323C153.4 26.3828 153.438 22.4173 153.438 16.0404C153.438 12.6336 153.4 10.1568 153.323 8.60989H151.593C151.459 8.27613 151.387 7.92102 151.38 7.56164C151.371 7.46946 151.382 7.37656 151.413 7.28904C151.443 7.20152 151.491 7.12138 151.554 7.05389C151.712 6.93805 151.905 6.88194 152.1 6.89556L158.717 6.92832ZM157.183 9.52711C157.107 11.205 157.069 15.3252 157.069 21.8877C157.069 24.643 157.211 26.2227 157.494 26.6267C157.778 27.0307 158.761 27.2345 160.443 27.2382C162.414 27.2382 163.882 26.6212 164.854 25.3983C165.826 24.1753 166.312 21.8823 166.312 18.5409C166.312 15.1087 165.744 12.721 164.608 11.3779C163.473 10.0348 161.704 9.3615 159.302 9.35786C158.592 9.3502 157.883 9.40685 157.183 9.52711Z" fill="#D85C2B"/><path d="M179.884 27.9534C180.026 28.2439 180.099 28.5635 180.097 28.887C180.11 28.9966 180.1 29.1077 180.069 29.2137C180.038 29.3197 179.986 29.4184 179.917 29.5039C179.709 29.6357 179.463 29.6934 179.218 29.6677H172.814C172.69 29.3489 172.623 29.0106 172.617 28.6686C172.599 28.4714 172.66 28.275 172.786 28.1226C172.954 27.9891 173.168 27.9265 173.381 27.9479H174.588C174.664 26.4028 174.703 24.5957 174.703 22.4883C174.703 19.955 174.703 18.268 174.643 17.4162C174.648 16.8197 174.558 16.2261 174.375 15.6582C174.326 15.5205 174.247 15.3953 174.145 15.2915C174.042 15.1877 173.917 15.1079 173.78 15.0577C173.47 14.9745 173.151 14.9359 172.83 14.943C172.684 14.6951 172.611 14.4115 172.617 14.1241C172.598 13.9312 172.652 13.7383 172.77 13.5842C172.888 13.4301 173.059 13.3265 173.25 13.2942C174.064 13.1626 174.889 13.1114 175.713 13.1413C176.296 13.1188 176.88 13.1609 177.454 13.2669C177.583 13.2797 177.704 13.3316 177.801 13.4156C177.899 13.4996 177.968 13.6116 178 13.7364C178.055 14.1252 178.076 14.5179 178.066 14.9103V22.521C178.066 24.6011 178.104 26.4083 178.18 27.9807L179.884 27.9534ZM174.277 9.87645C174.103 9.7101 173.967 9.50741 173.881 9.28282C173.794 9.05822 173.758 8.81725 173.775 8.57706C173.767 8.29774 173.821 8.02015 173.933 7.7643C174.046 7.50845 174.213 7.28071 174.424 7.09749C174.936 6.70132 175.575 6.50701 176.22 6.55153C176.807 6.49283 177.394 6.66299 177.858 7.02652C178.024 7.19288 178.153 7.39189 178.238 7.61089C178.322 7.82989 178.361 8.06409 178.35 8.29862C178.36 8.57093 178.311 8.8422 178.206 9.09382C178.102 9.34544 177.944 9.57145 177.744 9.75634C177.204 10.1667 176.53 10.3613 175.855 10.3023C175.294 10.3569 174.733 10.2055 174.277 9.87645Z" fill="#D85C2B"/><path d="M182.183 13.4361C183.616 13.2629 185.058 13.1754 186.501 13.174C186.568 13.8567 186.568 14.5442 186.501 15.2268C187.564 14.4628 188.744 13.8765 189.995 13.4907C190.982 13.1892 192.005 13.0275 193.036 13.0102C193.247 12.9885 193.458 13.0263 193.648 13.1194C193.752 13.1904 193.801 13.3487 193.801 13.5944C193.796 14.1114 193.723 14.6255 193.582 15.1231C193.515 15.518 193.324 15.8813 193.036 16.1604C192.72 16.3387 192.371 16.4519 192.01 16.4935C191.736 16.5651 191.45 16.5818 191.169 16.5426C190.89 16.2641 190.641 15.9566 190.427 15.6254C189.991 15.6079 189.557 15.6825 189.153 15.8443C188.748 16.0061 188.382 16.2515 188.079 16.5645C187.482 17.1905 187.184 18.4644 187.184 20.3862C187.184 23.793 187.227 26.3245 187.315 27.9806H189.613C189.745 28.274 189.812 28.5925 189.81 28.9142C189.823 29.0238 189.813 29.1349 189.782 29.2409C189.751 29.3469 189.699 29.4456 189.63 29.5311C189.428 29.6629 189.187 29.7208 188.947 29.6949H182.052C181.918 29.3785 181.845 29.0394 181.839 28.6958C181.83 28.5973 181.842 28.4981 181.872 28.4042C181.903 28.3103 181.953 28.2238 182.019 28.1498C182.184 28.0186 182.393 27.956 182.603 27.9751H183.728C183.815 26.319 183.859 24.1534 183.859 21.4781C183.859 18.2024 183.733 16.3024 183.482 15.7783C183.351 15.518 183.145 15.3038 182.889 15.1643C182.633 15.0248 182.341 14.9666 182.052 14.9975C181.912 14.6946 181.839 14.3649 181.839 14.0312C181.819 13.9076 181.843 13.781 181.905 13.6727C181.968 13.5644 182.066 13.4808 182.183 13.4361Z" fill="#D85C2B"/><path d="M207.118 14.3915C208.079 15.3524 208.559 16.963 208.559 19.2233C208.623 19.9538 208.43 20.6838 208.013 21.2871C207.664 21.6801 206.921 21.8712 205.731 21.8712H198.524C198.468 23.3683 198.847 24.8495 199.616 26.1352C200.304 27.1725 201.527 27.6858 203.274 27.6858C204.883 27.6931 206.46 27.2424 207.822 26.3864C208.041 26.5764 208.219 26.8089 208.346 27.0698C208.473 27.3306 208.545 27.6145 208.559 27.9041C208.559 28.6321 207.958 29.1544 206.757 29.4711C205.427 29.7855 204.062 29.9358 202.695 29.9187C199.911 29.9187 197.909 29.3164 196.69 28.1116C195.47 26.9068 194.866 24.8777 194.877 22.0241C194.877 19.2106 195.558 16.9921 196.919 15.3688C198.28 13.7455 200.18 12.932 202.619 12.9283C204.639 12.9283 206.139 13.4161 207.118 14.3915ZM199.518 16.3788C198.957 17.1723 198.648 18.4135 198.59 20.1023H200.271C202.051 20.1023 203.269 20.0641 203.913 19.9931C204.557 19.9221 204.934 19.802 205.037 19.6328C205.165 19.3391 205.218 19.0182 205.19 18.6992C205.247 17.7675 204.957 16.8478 204.377 16.1168C204.078 15.7912 203.71 15.5361 203.3 15.3699C202.89 15.2037 202.449 15.1306 202.007 15.1559C201.523 15.1308 201.039 15.23 200.604 15.444C200.168 15.6581 199.794 15.9798 199.518 16.3788Z" fill="#D85C2B"/><path d="M212.44 28.2808C211.308 27.1307 210.742 25.1652 210.742 22.3844C210.742 19.3052 211.454 16.9594 212.877 15.347C214.3 13.7345 216.468 12.9265 219.379 12.9229C220.427 12.8657 221.477 13.0026 222.475 13.3269C222.745 13.4047 222.985 13.5649 223.16 13.785C223.335 14.0052 223.437 14.2744 223.452 14.5553C223.442 15.2497 223.196 15.9199 222.753 16.4553C221.485 15.6983 220.056 15.253 218.582 15.1559C217.07 15.1559 216 15.6472 215.361 16.6354C214.722 17.6236 214.406 19.1578 214.406 21.2543C214.406 23.3508 214.717 25.0378 215.339 26.1297C215.962 27.2217 217.086 27.7676 218.73 27.7676C220.266 27.6912 221.762 27.2535 223.097 26.4901C223.436 26.9416 223.627 27.4871 223.643 28.0515C223.643 28.6849 223.097 29.1435 221.956 29.5038C220.713 29.8528 219.426 30.0201 218.135 30.0006C215.474 30.0188 213.576 29.4456 212.44 28.2808Z" fill="#D85C2B"/><path d="M227.267 13.3434L228.589 8.60986C228.998 8.73381 229.39 8.90803 229.757 9.12853C230.048 9.29761 230.29 9.53817 230.461 9.82736C230.614 10.1003 230.691 11.0449 230.691 12.6555V13.3379H236.057C236.185 13.7122 236.25 14.1053 236.249 14.5008C236.263 14.6148 236.255 14.7306 236.224 14.8412C236.193 14.9519 236.14 15.0552 236.068 15.1451C235.854 15.2754 235.602 15.3311 235.353 15.3034H230.691V23.1871C230.691 25.0652 230.86 26.3009 231.198 26.8942C231.343 27.1756 231.56 27.4125 231.829 27.5798C232.097 27.7471 232.406 27.8385 232.722 27.8442C233.598 27.8253 234.457 27.5909 235.222 27.1617C235.459 27.5155 235.584 27.9318 235.582 28.3574C235.589 28.6359 235.496 28.9077 235.321 29.1245C235.147 29.3414 234.901 29.4893 234.627 29.5421C233.643 29.7826 232.631 29.8837 231.619 29.8424C230.134 29.8424 229.047 29.5312 228.37 28.9088C227.693 28.2864 227.349 27.1235 227.349 25.4256V21.5055C227.349 19.369 227.289 17.3034 227.169 15.3088H225.575C225.448 14.9323 225.381 14.5379 225.378 14.1405C225.359 13.9229 225.423 13.7061 225.559 13.5345C225.64 13.4635 225.736 13.4099 225.839 13.377C225.942 13.3442 226.051 13.3327 226.159 13.3434H227.267Z" fill="#D85C2B"/><path d="M33.1245 34.6196C32.8459 34.626 32.5718 34.548 32.3383 34.3958L16.8057 23.8259C16.6946 23.7514 16.6035 23.6506 16.5407 23.5325C16.4778 23.4144 16.4451 23.2827 16.4453 23.1489V0.818917C16.4456 0.670371 16.4863 0.524696 16.563 0.397491C16.6397 0.270286 16.7495 0.166341 16.8808 0.096787C17.0121 0.0272327 17.1598 -0.00531165 17.3081 0.00263888C17.4564 0.0105894 17.5998 0.0587354 17.7229 0.141921L33.5176 10.8647C33.8294 11.0763 34.0845 11.3612 34.2606 11.6943C34.4367 12.0275 34.5284 12.3987 34.5277 12.7756V33.2165C34.5262 33.5882 34.3779 33.9442 34.1151 34.207C33.8523 34.4699 33.4962 34.6182 33.1245 34.6196ZM18.0832 22.7176L32.8898 32.7579V12.7756C32.8881 12.6676 32.8605 12.5615 32.8092 12.4665C32.7579 12.3714 32.6844 12.2902 32.5949 12.2296L18.0832 2.40221V22.7176Z" fill="black"/><path d="M1.40313 34.6196C1.03144 34.6182 0.675382 34.4699 0.412555 34.207C0.149729 33.9442 0.00143794 33.5882 5.33495e-08 33.2165V12.7919C-8.1534e-05 12.4096 0.0934166 12.0331 0.272332 11.6953C0.451248 11.3575 0.710142 11.0685 1.02641 10.8538L16.8048 0.141921C16.9279 0.0587354 17.0712 0.0105894 17.2196 0.00263888C17.3679 -0.00531165 17.5156 0.0272327 17.6469 0.096787C17.7781 0.166341 17.888 0.270286 17.9647 0.397491C18.0414 0.524696 18.0821 0.670371 18.0823 0.818917V23.1489C18.0826 23.2827 18.0498 23.4144 17.987 23.5325C17.9241 23.6506 17.8331 23.7514 17.722 23.8259L2.18386 34.3958C1.95236 34.5479 1.68006 34.6259 1.40313 34.6196ZM16.4444 2.364L1.94363 12.1914C1.84689 12.2583 1.76831 12.3482 1.71494 12.4531C1.66157 12.5579 1.6351 12.6743 1.63789 12.7919V32.7579L16.4444 22.7176V2.364Z" fill="black"/><path d="M17.2633 23.1489L7.22852 29.9625H27.2982L17.2633 23.1489Z" fill="#D85C2B"/><path d="M28.1823 30.2355H6.34375L17.263 22.8213L28.1823 30.2355ZM8.11813 29.6896H26.4079L17.263 23.4765L8.11813 29.6896Z" fill="#D85C2B"/><path d="M17.2633 23.1489L7.22852 29.9625H27.2982L17.2633 23.1489Z" fill="#D85C2B"/><path d="M29.9627 30.7814H4.56445L17.2636 22.1606L29.9627 30.7814ZM9.89307 29.1435H24.6341L17.2636 24.1425L9.89307 29.1435Z" fill="black"/><path d="M30.9555 15.4999L19.4903 7.69811C19.4252 7.65389 19.3718 7.59451 19.3347 7.52508C19.2976 7.45566 19.2779 7.37826 19.2773 7.29955V6.6171C19.277 6.52862 19.3008 6.44172 19.3462 6.36578C19.3915 6.28983 19.4568 6.22772 19.5349 6.18615C19.613 6.14457 19.701 6.1251 19.7893 6.12985C19.8777 6.1346 19.963 6.16338 20.0362 6.21308L31.5015 14.0149C31.5667 14.0603 31.6201 14.1207 31.6571 14.191C31.6942 14.2613 31.7138 14.3395 31.7144 14.4189V15.0959C31.7148 15.1844 31.691 15.2713 31.6456 15.3472C31.6002 15.4232 31.5349 15.4853 31.4569 15.5269C31.3788 15.5684 31.2908 15.5879 31.2024 15.5832C31.1141 15.5784 31.0287 15.5496 30.9555 15.4999Z" fill="black"/><path d="M30.9555 20.0805L19.4903 12.2786C19.4251 12.2332 19.3717 12.1728 19.3346 12.1025C19.2976 12.0322 19.2779 11.9541 19.2773 11.8746V11.1976C19.277 11.1091 19.3008 11.0223 19.3462 10.9463C19.3915 10.8704 19.4568 10.8083 19.5349 10.7667C19.613 10.7251 19.701 10.7056 19.7893 10.7104C19.8777 10.7151 19.963 10.7439 20.0362 10.7936L31.5015 18.5954C31.5667 18.6408 31.6201 18.7012 31.6571 18.7715C31.6942 18.8418 31.7138 18.92 31.7144 18.9995V19.6546C31.7189 19.7449 31.6982 19.8347 31.6544 19.9139C31.6107 19.993 31.5458 20.0584 31.4669 20.1026C31.388 20.1469 31.2984 20.1683 31.2081 20.1643C31.1177 20.1604 31.0303 20.1314 30.9555 20.0805Z" fill="black"/><path d="M30.9555 24.6066L19.4903 16.8048C19.4251 16.7594 19.3717 16.699 19.3346 16.6287C19.2976 16.5584 19.2779 16.4802 19.2773 16.4008V15.7238C19.277 15.6353 19.3008 15.5484 19.3462 15.4725C19.3915 15.3965 19.4568 15.3344 19.5349 15.2928C19.613 15.2513 19.701 15.2318 19.7893 15.2365C19.8777 15.2413 19.963 15.2701 20.0362 15.3198L31.5015 23.1216C31.5666 23.1658 31.62 23.2252 31.6571 23.2946C31.6942 23.364 31.7139 23.4414 31.7144 23.5202V24.2026C31.7148 24.2911 31.691 24.378 31.6456 24.4539C31.6002 24.5299 31.5349 24.592 31.4569 24.6336C31.3788 24.6751 31.2908 24.6946 31.2024 24.6899C31.1141 24.6851 31.0287 24.6563 30.9555 24.6066Z" fill="black"/><path d="M25.3051 25.2344L19.4688 21.2925C19.4039 21.2468 19.3508 21.1863 19.3137 21.1161C19.2767 21.0459 19.2569 20.9679 19.2559 20.8885V20.2006C19.2565 20.1126 19.281 20.0264 19.3268 19.9512C19.3726 19.8761 19.4379 19.8147 19.5158 19.7738C19.5937 19.7329 19.6813 19.7139 19.7692 19.7189C19.8571 19.7238 19.9419 19.7526 20.0147 19.802L25.8456 23.7494C25.9125 23.7935 25.9675 23.8534 26.0056 23.9239C26.0437 23.9944 26.0638 24.0732 26.064 24.1534V24.8304C26.0644 24.9188 26.0406 25.0057 25.9952 25.0817C25.9498 25.1576 25.8846 25.2197 25.8065 25.2613C25.7284 25.3029 25.6404 25.3224 25.5521 25.3176C25.4637 25.3129 25.3783 25.2841 25.3051 25.2344Z" fill="black"/><path d="M3.57139 15.4999L15.0366 7.69811C15.1018 7.65389 15.1552 7.59451 15.1923 7.52508C15.2293 7.45566 15.249 7.37826 15.2496 7.29955V6.6171C15.2499 6.52862 15.2261 6.44172 15.1808 6.36578C15.1354 6.28983 15.0701 6.22772 14.992 6.18615C14.9139 6.14457 14.8259 6.1251 14.7376 6.12985C14.6492 6.1346 14.5639 6.16338 14.4907 6.21308L3.02543 14.0149C2.96022 14.0603 2.90684 14.1207 2.8698 14.191C2.83275 14.2613 2.8131 14.3395 2.8125 14.4189V15.0959C2.81213 15.1844 2.83593 15.2713 2.88132 15.3472C2.9267 15.4232 2.99197 15.4853 3.07007 15.5269C3.14816 15.5684 3.23613 15.5879 3.32448 15.5832C3.41283 15.5784 3.4982 15.5496 3.57139 15.4999Z" fill="black"/><path d="M3.57004 20.0805L15.0353 12.2786C15.1005 12.2332 15.1539 12.1728 15.1909 12.1025C15.228 12.0322 15.2476 11.9541 15.2482 11.8746V11.1976C15.2486 11.1091 15.2248 11.0223 15.1794 10.9463C15.134 10.8704 15.0688 10.8083 14.9907 10.7667C14.9126 10.7251 14.8246 10.7056 14.7362 10.7104C14.6479 10.7151 14.5625 10.7439 14.4893 10.7936L3.02408 18.5954C2.95887 18.6408 2.90549 18.7012 2.86845 18.7715C2.8314 18.8418 2.81175 18.92 2.81115 18.9995V19.6546C2.80663 19.7449 2.82741 19.8347 2.87113 19.9139C2.91486 19.993 2.97981 20.0584 3.05867 20.1026C3.13753 20.1469 3.22717 20.1683 3.31751 20.1643C3.40786 20.1604 3.49531 20.1314 3.57004 20.0805Z" fill="black"/><path d="M3.57028 24.6066L15.0355 16.8048C15.1109 16.7619 15.1738 16.7 15.2178 16.6253C15.2619 16.5506 15.2856 16.4657 15.2867 16.3789V15.7238C15.287 15.6353 15.2633 15.5484 15.2179 15.4725C15.1725 15.3965 15.1072 15.3344 15.0291 15.2928C14.951 15.2513 14.863 15.2318 14.7747 15.2365C14.6864 15.2413 14.601 15.2701 14.5278 15.3198L3.06254 23.1216C2.99742 23.1658 2.94402 23.2252 2.90693 23.2946C2.86984 23.364 2.85017 23.4414 2.84961 23.5202V24.2026C2.85321 24.2853 2.87787 24.3657 2.92124 24.4361C2.96461 24.5066 3.02526 24.5648 3.09744 24.6053C3.16962 24.6458 3.25094 24.6671 3.33369 24.6674C3.41644 24.6676 3.49788 24.6467 3.57028 24.6066Z" fill="black"/><path d="M3.57139 29.089L10.4123 24.4265C10.4774 24.3822 10.5308 24.3229 10.5679 24.2534C10.605 24.184 10.6247 24.1066 10.6253 24.0279V23.3454C10.6277 23.256 10.6053 23.1677 10.5608 23.0902C10.5162 23.0127 10.4511 22.9489 10.3726 22.906C10.2942 22.8631 10.2054 22.8427 10.1161 22.847C10.0267 22.8514 9.94032 22.8802 9.86636 22.9305L3.02543 27.6094C2.96031 27.6536 2.90691 27.713 2.86982 27.7824C2.83273 27.8519 2.81306 27.9293 2.8125 28.008V28.685C2.81213 28.7735 2.83593 28.8603 2.88132 28.9363C2.9267 29.0122 2.99197 29.0744 3.07007 29.1159C3.14816 29.1575 3.23613 29.177 3.32448 29.1722C3.41283 29.1675 3.4982 29.1387 3.57139 29.089Z" fill="black"/></g></g><defs><clipPath id="clip0_93_3"><rect width="237" height="37" fill="white"/></clipPath></defs></svg>