<svg width="151" height="192" viewBox="0 0 151 192" fill="none" xmlns="http://www.w3.org/2000/svg">
<g clip-path="url(#clip0_21452_3387)">
<path d="M75.4978 191.998C65.3072 191.998 55.4203 190.004 46.1087 186.069C37.1189 182.272 29.044 176.835 22.1118 169.912C15.1798 162.989 9.73618 154.923 5.9338 145.945C1.99646 136.645 0 126.77 0 116.593V-0.00012207L104.891 -6.71914e-05H151V116.594C151 126.772 149.003 136.647 145.066 145.947C141.264 154.926 135.82 162.991 128.888 169.914C121.956 176.837 113.881 182.274 104.891 186.072C95.5797 190.004 85.6928 192 75.5022 192L75.4978 191.998Z" fill="url(#paint0_linear_21452_3387)"/>
<path d="M134.612 -16.0709C118.031 -16.0709 104.539 -2.51521 104.539 14.1447C104.539 30.8047 118.031 44.3603 134.612 44.3603C151.194 44.3603 164.686 30.8047 164.686 14.1447C164.686 -2.51521 151.196 -16.0709 134.612 -16.0709ZM160.417 14.0113L159.611 13.6087C149.062 8.35558 140.374 -0.373446 135.146 -10.9702L134.745 -11.7827C148.87 -11.7112 160.346 -0.180508 160.417 14.0113ZM134.612 30.7904C130.875 23.7481 125.054 17.8994 118.042 14.1447C125.054 10.3901 130.875 4.54137 134.612 -2.50332C138.349 4.53899 144.17 10.3877 151.179 14.1424C144.168 17.897 138.347 23.7457 134.61 30.7904H134.612ZM134.484 -11.7827L134.083 -10.9702C128.855 -0.371067 120.165 8.35796 109.615 13.6111L108.809 14.0137C108.88 -0.180506 120.357 -11.7112 134.484 -11.7827ZM108.809 14.2781L109.615 14.6808C120.165 19.9339 128.852 28.6629 134.081 39.2599L134.481 40.0722C120.357 40.0008 108.88 28.4699 108.806 14.2781H108.809ZM134.745 40.0722L135.146 39.2599C140.374 28.6606 149.064 19.9315 159.611 14.6784L160.417 14.2758C160.346 28.4699 148.87 40.0008 134.742 40.0722H134.745Z" fill="white"/>
<path d="M75.4982 182.592C66.5771 182.592 57.9214 180.858 49.7696 177.438C41.8988 174.136 34.8295 169.409 28.7607 163.39C22.6919 157.371 17.9263 150.359 14.5977 142.553C11.1508 134.467 9.40294 125.882 9.40294 117.034L9.40283 107.343H101.231H141.597V117.035C141.597 125.884 139.849 134.469 136.402 142.555C133.073 150.361 128.308 157.372 122.239 163.392C116.17 169.411 109.101 174.138 101.231 177.439C93.079 180.858 84.4233 182.593 75.5016 182.593L75.4982 182.592Z" fill="white"/>
<mask id="mask0_21452_3387" style="mask-type:luminance" maskUnits="userSpaceOnUse" x="48" y="117" width="55" height="26">
<path fill-rule="evenodd" clip-rule="evenodd" d="M48.1846 117.955H102.016V142.318H48.1846V117.955Z" fill="white"/>
</mask>
<g mask="url(#mask0_21452_3387)">
<path fill-rule="evenodd" clip-rule="evenodd" d="M96.4948 141.654C96.5385 142.021 96.2558 142.318 96.2558 142.318L95.9378 142.219C95.9378 142.219 93.597 141.393 89.9968 140.336C89.9968 140.336 86.8108 139.39 85.5166 138.964C85.5166 138.964 85.2383 138.857 84.6946 138.91C84.1509 138.964 82.2698 139.106 81.0319 139.236L79.1403 139.449C75.7231 139.842 74.1611 139.91 74.1611 139.91C68.7384 140.434 67.4403 140.532 67.4403 140.532C64.5773 140.741 62.7532 141.083 58.4704 141.362L50.4077 142.169C50.4077 142.169 49.833 142.231 49.8286 142.228L49.614 142.248C49.4364 142.13 49.4148 141.992 49.4148 141.992L49.4226 141.692C49.7633 141.569 49.3805 141.202 49.3805 141.202C49.2058 141.127 49.2633 140.999 49.2633 140.999C49.2655 140.974 49.2793 140.959 49.2887 140.942C49.3064 140.91 49.3429 140.86 49.3402 140.853C49.3014 140.756 49.4801 140.409 49.4801 140.409C49.3899 140.295 49.4253 140.315 49.3346 140.202C49.2766 140.129 49.25 139.912 49.2362 139.758C49.2268 139.65 49.4176 139.439 49.3673 139.381C49.2854 139.286 49.2013 139.2 49.1206 139.099C49.0935 139.066 49.0653 138.996 49.0553 138.943C49.0481 138.905 49.0658 138.855 49.0819 138.832C49.1394 138.751 49.1416 138.747 49.0691 138.616C49.042 138.566 49.0105 138.526 48.9818 138.479C48.9187 138.376 49.1239 138.149 49.1051 138C49.0957 137.932 49.0769 137.858 49.0559 137.791C49.0415 137.746 49.0266 137.684 49.0127 137.62C49.0077 137.607 49.0022 137.593 48.9972 137.579C48.984 137.54 48.9829 137.508 48.9889 137.481C48.9806 137.418 48.979 137.366 48.9851 137.33C48.9624 137.258 48.9397 137.186 48.9181 137.113C48.9015 137.056 48.9043 137.007 48.9259 136.974C48.932 136.964 48.9381 136.954 48.9458 136.95C48.9878 136.926 48.9729 136.824 48.9912 136.768C48.9823 136.757 48.974 136.747 48.9652 136.736C48.9364 136.701 48.9248 136.676 48.9342 136.649C48.9558 136.59 48.9353 136.502 48.9403 136.433C48.9464 136.349 48.9248 136.266 48.896 136.187C48.8822 136.149 48.8744 136.109 48.8639 136.07C48.8507 136.018 48.854 135.977 48.8689 135.951C48.8921 135.911 48.9181 135.878 48.9425 135.84C48.9596 135.814 48.9563 135.744 48.9342 135.692C48.9176 135.652 48.8988 135.614 48.88 135.577C48.8518 135.535 48.823 135.493 48.7931 135.457C48.7246 135.371 48.682 135.273 48.7019 135.153C48.7157 135.074 48.7002 135.032 48.656 134.982C48.6278 134.951 48.599 134.913 48.5763 134.868C48.4895 134.697 48.4945 134.645 48.5929 134.632C48.6825 134.619 48.698 134.597 48.6692 134.411C48.6416 134.236 48.6455 134.131 48.7367 134.107C48.7854 134.093 48.8291 134.038 48.8103 133.9C48.7909 133.76 48.8512 133.508 48.7716 133.475C48.6687 133.433 48.6576 133.256 48.6001 133.151C48.599 133.149 48.6073 133.111 48.6134 133.113C48.6289 133.119 48.6466 133.145 48.6621 133.151C48.682 133.159 48.7008 133.154 48.7196 133.155C48.7057 133.114 48.6947 133.06 48.677 133.036C48.62 132.961 48.6023 132.906 48.6029 132.782C48.6034 132.635 48.5929 132.441 48.464 132.333C48.4447 132.317 48.4198 132.216 48.417 132.164C48.4148 132.127 48.4436 132.097 48.464 132.084C48.4873 132.069 48.5194 132.084 48.5437 132.073C48.5669 132.064 48.5852 132.038 48.6051 132.019C48.5868 131.974 48.5713 131.918 48.5492 131.886C48.5133 131.833 48.4734 131.788 48.4342 131.753C48.3645 131.689 48.3291 131.575 48.375 131.524C48.4502 131.442 48.3899 131.373 48.3418 131.286C48.3158 131.239 48.2893 131.186 48.271 131.131C48.261 131.1 48.2633 131.035 48.2677 131.026C48.2843 130.996 48.3435 130.884 48.4812 130.891C48.5426 130.895 48.5503 130.81 48.5481 130.789C48.5304 130.743 48.3816 130.782 48.3612 130.763C48.3086 130.714 48.3661 130.696 48.3125 130.658C48.2588 130.62 48.1709 130.397 48.1864 130.325C48.1952 130.287 48.2312 130.278 48.2583 130.271C48.2987 130.26 48.3556 130.293 48.2848 130.136C48.2389 130.034 48.2594 130.076 48.2904 129.951C48.3058 129.889 48.3379 129.915 48.3147 129.843L48.3584 129.805C48.3584 129.805 49.0426 129.705 49.1388 129.695C49.3335 129.675 49.1704 129.411 49.1704 129.411C49.1151 129.056 49.1587 128.906 49.1549 128.859C49.1311 128.575 49.0321 128.532 48.9176 128.462C48.891 128.446 48.8562 128.337 48.8407 128.267C48.8357 128.243 48.8728 128.187 48.8977 128.188C48.9381 128.189 48.953 128.165 48.9972 128.189C49.0105 128.196 49.0227 128.136 49.0365 128.146C49.0332 128.115 49.0542 128.124 49.0443 128.106C49.0149 128.051 48.9917 128.091 48.9629 128.036C48.9381 127.987 48.9126 127.928 48.9032 127.873C48.8993 127.852 48.9369 127.821 48.9602 127.815C48.9995 127.807 49.0199 127.699 48.9773 127.586C48.9458 127.502 48.9408 127.506 48.9198 127.411C48.8861 127.257 48.9032 127.161 48.9629 127.103C49.0337 127.034 49.0266 126.964 48.9392 126.83C48.932 126.819 48.9248 126.806 48.9165 126.797C48.8794 126.757 48.8407 126.723 48.844 126.63C48.8479 126.523 48.9248 126.446 48.9574 126.454C48.9823 126.46 48.9961 126.401 48.9989 126.383C49.0166 126.264 49.0122 126.3 48.9812 126.237C48.9458 126.165 48.8667 126.167 48.7987 126.159C48.6659 126.143 48.6825 126.091 48.6106 125.997C48.5476 125.914 48.5271 125.883 48.5791 125.811C48.5929 125.793 48.6775 125.777 48.7013 125.78C48.7533 125.786 48.734 125.744 48.74 125.644C48.7417 125.616 48.75 125.594 48.7566 125.572C48.8092 125.403 48.8075 125.403 48.7478 125.146C48.7046 124.962 48.6742 124.792 48.745 124.668C48.7915 124.585 48.7572 124.313 48.8191 124.298C48.8556 124.289 48.8584 124.183 48.8673 124.128C48.8733 124.089 48.88 124.075 48.901 124.073C48.9148 124.072 48.9298 124.032 48.9375 124.009C48.953 123.959 48.8717 123.88 48.854 123.84C48.8219 123.769 48.7898 123.703 48.7539 123.64C48.7035 123.551 48.6648 123.479 48.74 123.446C48.7915 123.423 48.7771 123.314 48.7423 123.265C48.6643 123.158 48.6477 123.028 48.62 122.896C48.6167 122.881 48.6106 122.864 48.6095 122.849C48.6029 122.767 48.5138 122.696 48.5531 122.621C48.5741 122.582 48.6278 122.608 48.6587 122.582C48.7163 122.535 48.8407 122.465 48.7765 122.413C48.7566 122.397 48.7799 122.302 48.7644 122.279C48.7207 122.214 48.7035 122.161 48.656 122.118C48.5741 122.047 48.6106 122.08 48.552 121.944L48.5398 121.873C48.5166 121.799 48.6078 121.793 48.6078 121.793L49.484 121.684C49.484 121.684 51.7965 121.438 53.9825 121.222C53.9825 121.222 55.6551 121.058 62.6763 120.345C62.6763 120.345 65.6432 120.086 69.0255 119.631C69.0255 119.631 71.9835 119.277 78.08 118.785C78.08 118.785 82.2405 118.358 85.2339 117.993C85.2339 117.993 86.3318 117.822 87.0974 118.202C87.0974 118.202 91.9786 120.256 93.7043 120.911L101.9 124.432C102.109 124.545 101.972 124.635 101.972 124.635C101.959 124.655 101.933 124.664 101.913 124.675C101.874 124.697 101.801 124.727 101.801 124.735C101.812 124.827 101.815 124.934 101.856 125C101.93 125.121 101.89 125.094 101.965 125.214C102.013 125.292 101.954 125.48 101.904 125.613C101.87 125.705 101.511 125.827 101.555 125.889C101.627 125.993 101.705 126.088 101.772 126.195C101.794 126.231 101.803 126.297 101.793 126.344C101.786 126.377 101.739 126.414 101.707 126.429C101.591 126.481 101.586 126.483 101.628 126.613C101.644 126.662 101.67 126.705 101.689 126.752C101.731 126.856 101.344 126.987 101.305 127.116C101.287 127.176 101.281 127.243 101.28 127.305C101.28 127.346 101.274 127.402 101.264 127.46C101.265 127.472 101.266 127.485 101.267 127.498C101.269 127.534 101.255 127.561 101.235 127.583C101.218 127.637 101.197 127.681 101.174 127.709C101.172 127.776 101.172 127.842 101.17 127.909C101.167 127.962 101.141 128.002 101.097 128.023C101.084 128.029 101.072 128.036 101.059 128.038C100.99 128.045 100.966 128.135 100.915 128.176C100.922 128.187 100.93 128.199 100.937 128.21C100.962 128.248 100.966 128.272 100.941 128.291C100.883 128.337 100.874 128.422 100.831 128.478C100.774 128.553 100.793 128.638 100.789 128.719C100.787 128.744 100.784 128.769 100.781 128.795C100.776 128.842 100.754 128.875 100.721 128.892C100.672 128.919 100.62 128.939 100.57 128.963C100.535 128.981 100.509 129.039 100.516 129.09C100.521 129.128 100.53 129.165 100.54 129.201C100.56 129.245 100.582 129.287 100.607 129.326C100.663 129.417 100.679 129.512 100.598 129.605C100.544 129.668 100.546 129.708 100.586 129.762C100.611 129.796 100.635 129.835 100.646 129.879C100.69 130.047 100.66 130.088 100.518 130.072C100.389 130.056 100.356 130.071 100.314 130.233C100.274 130.387 100.223 130.473 100.084 130.468C100.012 130.465 99.9263 130.499 99.8914 130.619C99.856 130.741 99.877 130.892 99.9727 130.942C100.097 131.007 100.033 131.157 100.067 131.261C100.067 131.264 100.038 131.293 100.031 131.29C100.012 131.28 99.9998 131.253 99.9805 131.244C99.9567 131.232 99.9285 131.23 99.9025 131.224C99.9036 131.262 99.8948 131.31 99.9091 131.336C99.9539 131.414 99.955 131.465 99.8986 131.568C99.8322 131.691 99.7603 131.856 99.8909 131.982C99.9108 132.002 99.9003 132.093 99.8815 132.137C99.8682 132.168 99.8151 132.185 99.7803 132.19C99.7421 132.196 99.7039 132.175 99.6652 132.177C99.6293 132.178 99.5928 132.194 99.5562 132.204C99.5618 132.247 99.5585 132.297 99.5745 132.331C99.601 132.386 99.6364 132.434 99.6746 132.475C99.7432 132.548 99.7415 132.654 99.6553 132.683C99.5148 132.729 99.5673 132.804 99.5955 132.891C99.6105 132.937 99.6232 132.989 99.6237 133.041C99.6243 133.069 99.5966 133.127 99.5822 133.128C99.4705 133.142 99.3555 133.265 99.2459 133.161C99.2294 133.145 99.1956 133.157 99.1696 133.155C99.1735 133.199 99.1646 133.261 99.1846 133.282C99.2354 133.339 99.2996 133.376 99.3566 133.423C99.4141 133.47 99.4373 133.682 99.3831 133.736C99.3544 133.766 99.3007 133.763 99.2598 133.761C99.1995 133.758 99.1348 133.715 99.163 133.866C99.1812 133.965 99.1525 134.068 99.038 134.072C98.945 134.074 98.9356 134.175 98.9356 134.242C98.9356 134.39 98.882 134.479 98.7764 134.541C98.7227 134.572 98.6563 134.601 98.7614 134.661C98.8577 134.716 98.8991 134.814 98.8765 134.98C98.8582 135.115 98.8372 135.285 98.9644 135.377C98.9937 135.398 98.9932 135.5 98.9838 135.562C98.9805 135.583 98.9041 135.62 98.8698 135.612C98.8151 135.598 98.767 135.554 98.7172 135.522C98.7017 135.512 98.6879 135.499 98.6729 135.487C98.6641 135.513 98.6436 135.546 98.6491 135.565C98.6652 135.619 98.6967 135.665 98.7122 135.72C98.7249 135.767 98.7338 135.825 98.7227 135.872C98.7183 135.891 98.653 135.906 98.6176 135.904C98.5595 135.9 98.5258 135.893 98.5346 136C98.5407 136.079 98.5075 136.168 98.4943 136.252C98.4721 136.392 98.4058 136.466 98.2968 136.497C98.169 136.534 98.148 136.594 98.2089 136.731C98.2144 136.743 98.2188 136.756 98.226 136.765C98.2592 136.809 98.2974 136.849 98.2514 136.926C98.1989 137.014 98.169 136.939 98.1264 136.923C98.0949 136.911 98.0263 136.918 98.0214 136.935C97.9992 137.005 97.9732 137.093 97.9882 137.155C98.0048 137.225 98.0617 137.277 98.1049 137.332C98.1746 137.419 98.2592 137.491 98.3162 137.59C98.3671 137.677 98.3339 137.725 98.2398 137.721C98.2066 137.72 98.1735 137.715 98.1414 137.705C98.0722 137.685 98.0108 137.695 97.9577 137.778C97.9434 137.8 97.9223 137.817 97.9024 137.834C97.7553 137.959 97.7575 137.959 97.726 138.191C97.7039 138.356 97.6701 138.506 97.5175 138.591C97.4157 138.646 97.3427 138.882 97.2498 138.877C97.1956 138.874 97.1452 138.961 97.1082 139.005C97.0822 139.035 97.0667 139.045 97.0363 139.041C97.0169 139.038 96.9931 139.007 96.9721 139.025C96.929 139.061 96.9915 139.211 96.9986 139.249C97.0114 139.317 97.0269 139.381 97.0484 139.445C97.0783 139.533 97.0999 139.604 96.9809 139.61C96.8996 139.614 96.8709 139.709 96.898 139.76C96.9583 139.873 96.9234 139.986 96.9035 140.103C96.9007 140.117 96.9013 140.133 96.8969 140.145C96.8698 140.215 96.9616 140.301 96.8736 140.352C96.8266 140.378 96.7641 140.342 96.7099 140.354C96.6093 140.377 96.508 140.41 96.409 140.45C96.3963 140.455 96.3792 140.536 96.3897 140.559C96.4217 140.626 96.4605 140.692 96.508 140.741C96.5893 140.824 96.6408 140.93 96.6624 141.06C96.6784 141.159 96.6679 141.249 96.5882 141.328C96.4544 141.464 96.4948 141.654 96.4948 141.654Z" fill="#00FFD0"/>
</g>
<path fill-rule="evenodd" clip-rule="evenodd" d="M68.9213 127.817C68.3572 127.339 67.6038 127.075 66.7996 127.075C65.3576 127.075 64.2232 127.725 63.7702 128.789C63.2901 127.531 62.1363 127.075 61.1744 127.075C60.1069 127.075 59.2258 127.537 58.7667 128.323L58.5206 127.318H57.0703V136.952H58.8469V131.025C58.8469 129.606 59.655 128.689 60.9056 128.689C61.982 128.689 62.5998 129.35 62.5998 130.502V136.952H64.3758V131.025C64.3758 129.606 65.1839 128.689 66.4351 128.689C67.5114 128.689 68.1287 129.35 68.1287 130.502V136.952H69.9053V130.074C69.9053 129.144 69.5652 128.363 68.9213 127.817Z" fill="#333333"/>
<path fill-rule="evenodd" clip-rule="evenodd" d="M83.4018 127.817C82.8376 127.339 82.0843 127.075 81.28 127.075C79.8381 127.075 78.7031 127.725 78.2506 128.789C77.7705 127.531 76.6167 127.075 75.6549 127.075C74.5874 127.075 73.7063 127.537 73.2472 128.323L73.001 127.318H71.5508V136.952H73.3274V131.025C73.3274 129.606 74.1355 128.689 75.3861 128.689C76.4624 128.689 77.0803 129.35 77.0803 130.502V136.952H78.8563V131.025C78.8563 129.606 79.6644 128.689 80.9155 128.689C81.9919 128.689 82.6092 129.35 82.6092 130.502V136.952H84.3858V130.074C84.3858 129.144 84.0456 128.363 83.4018 127.817Z" fill="#333333"/>
<path fill-rule="evenodd" clip-rule="evenodd" d="M90.8223 135.594C89.3245 135.594 87.809 134.421 87.809 132.178C87.809 130.21 89.0761 128.781 90.8223 128.781C92.5464 128.781 93.7975 130.21 93.7975 132.178C93.7975 134.421 92.3008 135.594 90.8223 135.594ZM90.8035 127.075C89.4003 127.075 88.1939 127.595 87.3161 128.58C86.4876 129.509 86.0312 130.787 86.0312 132.178C86.0312 133.576 86.4876 134.857 87.3161 135.784C88.1923 136.763 89.3981 137.281 90.8035 137.281C93.5685 137.281 95.5752 135.135 95.5752 132.178C95.5752 129.221 93.5685 127.075 90.8035 127.075Z" fill="#333333"/>
<path fill-rule="evenodd" clip-rule="evenodd" d="M53.4502 124.188V137.281H55.4248V123.453L53.4502 124.188Z" fill="#333333"/>
<path fill-rule="evenodd" clip-rule="evenodd" d="M47.6287 149.477L47.4716 149.412C46.0391 148.819 45.0252 148.298 45.0252 146.98C45.0252 145.682 46.0313 145.003 47.0247 145.003C47.8267 145.003 48.8428 145.44 49.2388 146.399L50.9247 145.725L50.8993 145.66C50.2361 143.966 48.4849 143.207 47.0441 143.207C45.1574 143.207 43.1264 144.43 43.1264 147.117C43.1264 149.739 45.0811 150.556 46.6519 151.213L46.8444 151.294C48.449 151.974 49.5004 152.52 49.5004 153.863C49.5004 155.255 48.3621 155.879 47.2343 155.879C46.1193 155.879 44.7885 155.268 44.3958 153.552L44.3781 153.477L42.5898 154.174C43.1286 156.317 44.9068 157.694 47.158 157.694C48.2902 157.694 49.3439 157.339 50.1255 156.695C51.0088 155.966 51.4756 154.926 51.4756 153.687C51.4756 151.052 49.4319 150.215 47.6287 149.477Z" fill="#333333"/>
<path fill-rule="evenodd" clip-rule="evenodd" d="M91.2526 155.498C91.5225 155.277 91.7958 155.056 92.0696 154.836C94.5901 152.803 97.1964 150.7 97.1964 147.626C97.1964 145.218 95.5376 143.537 93.1631 143.537C91.0767 143.537 88.8311 144.999 88.8311 148.211C88.8311 148.366 88.8411 148.538 88.8565 148.645L90.5574 147.957C90.5574 146.191 91.8118 145.267 93.0508 145.267C94.2555 145.267 95.4707 146.069 95.4707 147.86C95.4707 150.179 93.2101 151.995 90.0817 154.509C89.6359 154.867 89.1713 155.24 88.6923 155.632L88.6641 155.654V157.365H97.5498V155.498H91.2526Z" fill="#333333"/>
<path fill-rule="evenodd" clip-rule="evenodd" d="M69.7997 152.261C69.7997 154.522 68.2897 155.705 66.7979 155.705C65.2874 155.705 63.758 154.522 63.758 152.261C63.758 150.277 65.0362 148.838 66.7979 148.838C68.5369 148.838 69.7997 150.277 69.7997 152.261ZM66.7791 147.158C64.0135 147.158 62.0068 149.305 62.0068 152.261C62.0068 155.218 64.0135 157.365 66.7791 157.365C69.5441 157.365 71.5508 155.218 71.5508 152.261C71.5508 149.305 69.5441 147.158 66.7791 147.158Z" fill="#333333"/>
<path fill-rule="evenodd" clip-rule="evenodd" d="M79.0571 153.036C79.0571 154.815 77.7473 155.775 76.5155 155.775C75.5774 155.775 74.5757 155.218 74.5757 153.655V147.488H72.8672V153.655C72.8672 156.394 74.6499 157.365 76.177 157.365C77.4049 157.365 78.4868 156.78 79.0482 155.824L79.374 157.14H80.7656V147.488H79.0571V153.036Z" fill="#333333"/>
<path fill-rule="evenodd" clip-rule="evenodd" d="M85.3625 144.195L83.6778 144.88V147.065H82.082V148.684H83.6778V154.199C83.6778 156.954 85.1645 157.365 86.0506 157.365C86.4444 157.365 86.8515 157.3 87.2951 157.167L87.3477 157.151V155.389L87.2359 155.465C86.976 155.641 86.6718 155.746 86.4218 155.746C85.7486 155.746 85.3625 155.232 85.3625 154.336V148.684H87.3477V147.065H85.3625V144.195Z" fill="#333333"/>
<path fill-rule="evenodd" clip-rule="evenodd" d="M106.138 152.23V148.196L104.381 148.888V152.23H100.437L105.246 143.866H103.295L98.208 152.691V154.043H104.381V157.365H106.138V154.043H108.41V152.23H106.138Z" fill="#333333"/>
<path fill-rule="evenodd" clip-rule="evenodd" d="M60.0914 154.184C59.582 155.115 58.6296 155.685 57.5587 155.685C56.0747 155.685 54.5763 154.621 54.5763 152.243C54.5763 150.603 55.474 148.838 57.4437 148.838C58.4254 148.838 59.2988 149.354 59.7612 150.196L61.4255 149.57L61.3962 149.508C60.7043 148.058 59.1899 147.158 57.4437 147.158C56.2141 147.158 55.0752 147.608 54.2373 148.425C53.2914 149.347 52.792 150.673 52.792 152.261C52.792 155.768 55.2235 157.365 57.4818 157.365C59.238 157.365 60.7939 156.424 61.644 154.849L61.6778 154.786L61.6634 154.78L60.0914 154.184Z" fill="#333333"/>
<path d="M50.734 94.8158C48.995 94.8158 47.7471 93.873 47.3091 92.2661L48.225 91.8545C48.5702 93.1957 49.4198 93.8862 50.7472 93.8862C51.9552 93.8862 52.7119 93.2223 52.7119 92.1732C52.7119 91.1905 52.2738 90.7655 50.4552 90.0219C48.5967 89.2782 47.9197 88.5744 47.9197 87.4191C47.9197 86.038 49.0082 85.0686 50.6012 85.0686C51.5835 85.0686 52.2871 85.3342 52.8845 85.9318L52.3402 86.702C51.9021 86.2372 51.3181 85.9982 50.5747 85.9982C49.6056 85.9982 48.9419 86.5559 48.9419 87.3793C48.9419 88.1229 49.3799 88.5346 50.8136 89.1189C53.0969 90.0352 53.7872 90.7257 53.7872 92.0669C53.7872 93.7136 52.5659 94.8158 50.734 94.8158ZM61.8444 91.0444V91.3764H56.1362C56.2159 92.8637 57.2513 93.9526 58.6186 93.9526C59.8531 93.9526 60.4638 93.3418 60.8089 92.8372L61.539 93.3816C61.0346 94.205 60.1054 94.8158 58.5655 94.8158C56.5345 94.8158 55.1008 93.2754 55.1008 91.1241C55.1008 88.9595 56.5212 87.4324 58.5257 87.4324C60.4638 87.4324 61.8444 88.933 61.8444 91.0444ZM58.5257 88.2956C57.3177 88.2956 56.3619 89.2517 56.1755 90.5929H60.7824C60.6364 89.265 59.7204 88.2956 58.5257 88.2956ZM63.9384 86.3036C63.5402 86.3036 63.2216 85.9982 63.2216 85.5998C63.2216 85.2147 63.5402 84.896 63.9384 84.896C64.3234 84.896 64.6287 85.2147 64.6287 85.5998C64.6287 85.9982 64.3234 86.3036 63.9384 86.3036ZM63.434 94.6166V87.6581H64.4296V94.6166H63.434ZM68.9751 93.9394C69.3335 93.9394 69.6654 93.8331 69.9309 93.6871V94.5369C69.5857 94.6963 69.1875 94.776 68.7893 94.776C67.5414 94.776 66.9175 94.1385 66.9175 92.6247V88.4151H65.7361V87.6581H66.9175V85.6529L67.9131 85.4405V87.6581H69.6521V88.4151H67.9131V92.5184C67.9131 93.4879 68.2317 93.9394 68.9751 93.9394ZM75.7624 93.7269H80.3156V94.6166H74.2225V93.9526L77.1828 91.0046C78.2978 89.9024 79.1474 88.8931 79.1474 87.6581C79.1474 86.5427 78.4571 85.9982 77.3553 85.9982C76.5456 85.9982 76.0013 86.3036 75.5234 86.9543L74.8066 86.3036C75.3774 85.5467 76.2402 85.0686 77.3819 85.0686C79.0545 85.0686 80.1961 86.0115 80.1961 87.6581C80.1961 89.3446 79.0545 90.5132 78.0854 91.4561L75.7624 93.7269ZM85.131 94.8158C82.8345 94.8158 81.6928 92.9832 81.6928 89.9422C81.6928 86.9012 82.8345 85.0686 85.131 85.0686C87.3744 85.0686 88.5293 86.9012 88.5293 89.9422C88.5293 92.9832 87.3744 94.8158 85.131 94.8158ZM85.131 93.8862C86.7372 93.8862 87.4806 92.5052 87.4806 89.9422C87.4806 87.3925 86.7372 85.9982 85.131 85.9982C83.5247 85.9982 82.7415 87.3925 82.7415 89.9422C82.7415 92.5052 83.5247 93.8862 85.131 93.8862ZM91.5648 93.7269H96.118V94.6166H90.0249V93.9526L92.9852 91.0046C94.1003 89.9024 94.9499 88.8931 94.9499 87.6581C94.9499 86.5427 94.2596 85.9982 93.1578 85.9982C92.348 85.9982 91.8038 86.3036 91.3259 86.9543L90.609 86.3036C91.1798 85.5467 92.0427 85.0686 93.1843 85.0686C94.8569 85.0686 95.9986 86.0115 95.9986 87.6581C95.9986 89.3446 94.8569 90.5132 93.8879 91.4561L91.5648 93.7269ZM100.804 88.6807C102.45 88.6807 103.618 89.9422 103.618 91.7482C103.618 93.5542 102.291 94.8158 100.419 94.8158C99.1978 94.8158 98.1756 94.3377 97.6579 93.5543L98.4013 92.784C98.7863 93.4746 99.5031 93.8862 100.419 93.8862C101.64 93.8862 102.543 92.97 102.543 91.735C102.543 90.5132 101.68 89.5837 100.525 89.5837C99.7155 89.5837 99.065 89.9422 98.6668 90.6062L97.7376 90.2875L98.1225 85.2678H103.074V86.1443H99.0119L98.7199 89.5969H98.7597C99.1181 89.0525 99.9412 88.6807 100.804 88.6807Z" fill="#333333"/>
<path d="M37.4686 49.0723C43.0092 49.0723 45.882 51.0078 45.882 55.5532C45.882 60.3333 42.8919 62.1515 37.4686 62.1515H33.6577V69.7175H31.3418V49.0723H37.4686ZM37.3514 60.216C41.3969 60.216 43.5075 59.1603 43.5075 55.5532C43.5075 52.0342 41.3089 50.9784 37.3221 50.9784H33.6577V60.216H37.3514ZM61.4577 68.0753C61.9561 68.0753 62.3958 67.8993 62.689 67.7527V69.3949C62.2492 69.7175 61.575 69.8641 60.9301 69.8641C59.1125 69.8641 58.2917 68.5738 58.2917 66.8729V66.7556H58.2331C57.4709 68.6618 55.5947 70.0988 52.8977 70.0988C49.8197 70.0988 47.8262 68.3392 47.8262 65.6413C47.8262 62.3568 50.7577 61.3597 55.067 60.7439L58.1451 60.304V59.9814C58.1451 57.1368 57.0312 55.7585 54.3928 55.7585C52.3994 55.7585 51.2561 56.609 50.3766 58.0752L48.6764 56.9609C49.6438 55.1134 51.4906 53.8523 54.3928 53.8523C58.321 53.8523 60.3144 55.7292 60.3144 59.7175V66.2864C60.3144 67.6354 60.6955 68.0753 61.4577 68.0753ZM53.1029 68.1926C55.8292 68.1926 58.1451 66.521 58.1451 62.2688V61.9169L55.0964 62.3861C52.1649 62.7967 50.0835 63.3245 50.0835 65.524C50.0835 67.3128 51.3147 68.1926 53.1029 68.1926ZM65.2311 69.7175V54.3509H66.7554L67.3124 57.5767H67.3711C68.3091 54.7321 70.4198 53.8523 72.1201 53.8523C73.0582 53.8523 73.5272 54.0283 73.7031 54.1163L73.41 56.1397C73.0875 55.9638 72.5891 55.8465 71.8856 55.8465C69.1593 55.8465 67.4297 58.4858 67.4297 62.5034V69.7175H65.2311ZM82.2769 68.2219C83.0684 68.2219 83.8013 67.9873 84.3876 67.6647V69.5416C83.6254 69.8935 82.746 70.0694 81.8665 70.0694C79.1109 70.0694 77.7331 68.6618 77.7331 65.3187V56.0224H75.1241V54.3509H77.7331V49.9227L79.9317 49.4535V54.3509H83.772V56.0224H79.9317V65.0841C79.9317 67.2248 80.6353 68.2219 82.2769 68.2219ZM87.4176 69.7175V54.3509H88.9419L89.5282 57.1075H89.5869C90.437 54.996 92.1666 53.8523 94.6877 53.8523C97.8244 53.8523 99.9058 55.7585 99.9058 59.7468V69.7175H97.7071V59.9814C97.7071 57.0782 96.5052 55.7585 94.16 55.7585C91.463 55.7585 89.6162 57.5474 89.6162 61.5943V69.7175H87.4176ZM118.317 61.8289V62.5621H105.712C105.888 65.8465 108.174 68.2512 111.194 68.2512C113.92 68.2512 115.268 66.9023 116.031 65.7879L117.643 66.9902C116.529 68.8084 114.477 70.1574 111.076 70.1574C106.591 70.1574 103.425 66.7556 103.425 62.0049C103.425 57.2248 106.562 53.8523 110.988 53.8523C115.268 53.8523 118.317 57.1661 118.317 61.8289ZM110.988 55.7585C108.321 55.7585 106.21 57.87 105.8 60.8318H115.972C115.65 57.8993 113.627 55.7585 110.988 55.7585ZM121.828 69.7175V54.3509H123.353L123.91 57.5767H123.968C124.906 54.7321 127.017 53.8523 128.717 53.8523C129.656 53.8523 130.125 54.0283 130.3 54.1163L130.007 56.1397C129.685 55.9638 129.186 55.8465 128.483 55.8465C125.757 55.8465 124.027 58.4858 124.027 62.5034V69.7175H121.828Z" fill="#333333"/>
<path d="M33.7451 30.3293C35.6799 30.3879 38.5527 31.3557 38.5527 35.168C38.5527 38.6871 36.0903 40.9452 30.3152 40.9452H22.7812V20.0653H29.9341C35.6212 20.0653 37.8785 21.8248 37.8785 25.4026C37.8785 29.0096 35.2108 30.124 33.7451 30.2706V30.3293ZM29.8462 22.9979H26.3577V28.8923H29.8462C32.8656 28.8923 34.2141 28.0419 34.2141 25.8425C34.2141 23.8483 33.1295 22.9979 29.8462 22.9979ZM30.2566 38.0126C33.7451 38.0126 34.8297 36.8982 34.8297 34.8161C34.8297 32.734 33.7451 31.7076 30.2566 31.7076H26.3577V38.0126H30.2566ZM41.9278 40.9452V25.3439H44.4196L45.1525 28.7164H45.2111C46.2371 25.4612 48.3185 24.904 49.7843 24.904C50.9862 24.904 51.4845 25.1386 51.7484 25.2559L51.25 28.3645C50.8982 28.1885 50.2826 27.9539 49.4325 27.9539C47.3511 27.9539 45.3577 29.5961 45.3577 34.0243V40.9452H41.9278ZM60.9654 41.3851C56.1285 41.3851 52.7279 37.954 52.7279 33.1445C52.7279 28.3058 56.1285 24.8747 60.9654 24.8747C65.8317 24.8747 69.2909 28.3058 69.2909 33.1445C69.2909 37.954 65.8317 41.3851 60.9654 41.3851ZM60.9654 38.5111C63.6917 38.5111 65.7438 36.1944 65.7438 33.1445C65.7438 30.036 63.6917 27.7486 60.9654 27.7486C58.2685 27.7486 56.275 30.036 56.275 33.1445C56.275 36.1944 58.2685 38.5111 60.9654 38.5111ZM72.5023 40.9452V25.3439H74.9941L75.7563 28.0419H75.8149C76.7823 25.6958 78.5119 24.8747 80.5346 24.8747C83.6713 24.8747 85.8992 26.8689 85.8992 30.9451V40.9452H82.4401V31.297C82.4401 28.8923 81.502 27.8073 79.6258 27.8073C77.4565 27.8073 75.9321 29.2149 75.9321 32.3821V40.9452H72.5023ZM93.3381 38.1886H101.664V40.9452H88.9115V38.7751L96.8559 28.0419H89.2047V25.3439H101.253V27.4847L93.3381 38.1886ZM119.114 33.1739V34.2003H106.831C107.154 36.6929 109.001 38.5111 111.375 38.5111C113.896 38.5111 114.893 37.3968 116.007 35.8718L118.469 37.8367C117.121 40.0068 115.01 41.3851 111.434 41.3851C106.655 41.3851 103.313 37.9833 103.313 33.2032C103.313 28.3058 106.626 24.8747 111.375 24.8747C115.919 24.8747 119.114 28.3058 119.114 33.1739ZM111.375 27.7486C109.147 27.7486 107.388 29.3615 106.949 31.7076H115.596C115.274 29.3909 113.574 27.7486 111.375 27.7486Z" fill="#333333"/>
</g>
<defs>
<linearGradient id="paint0_linear_21452_3387" x1="131.377" y1="-17.082" x2="5.05067" y2="88.6981" gradientUnits="userSpaceOnUse">
<stop stop-color="#DF935C"/>
<stop offset="0.479167" stop-color="#FBD5BA"/>
<stop offset="1" stop-color="#DF935C"/>
</linearGradient>
<clipPath id="clip0_21452_3387">
<rect width="151" height="192" fill="white"/>
</clipPath>
</defs>
</svg>
