<svg width="44" height="22" viewBox="0 0 44 22" fill="none" xmlns="http://www.w3.org/2000/svg">
  <path fill-rule="evenodd" clip-rule="evenodd" d="M28 0H0V22H28L44 11L28 0Z" fill="#BDD045"/>
  <path d="M10.7141 10.932V10.904C11.4141 10.834 12.6881 10.302 12.6881 8.58C12.6881 6.872 11.6101 6.032 8.89407 6.032H5.47807V16H9.07607C11.8341 16 13.0101 14.922 13.0101 13.242C13.0101 11.422 11.6381 10.96 10.7141 10.932ZM8.85207 7.432C10.4201 7.432 10.9381 7.838 10.9381 8.79C10.9381 9.84 10.2941 10.246 8.85207 10.246H7.18607V7.432H8.85207ZM9.04807 14.6H7.18607V11.59H9.04807C10.7141 11.59 11.2321 12.08 11.2321 13.074C11.2321 14.068 10.7141 14.6 9.04807 14.6Z" fill="#333333"/>
</svg>
