<svg width="151" height="192" viewBox="0 0 151 192" fill="none" xmlns="http://www.w3.org/2000/svg">
<g clip-path="url(#clip0_21436_1164)">
<path d="M75.4978 191.998C65.3072 191.998 55.4203 190.004 46.1087 186.07C37.1189 182.272 29.044 176.835 22.1118 169.912C15.1798 162.989 9.73618 154.924 5.9338 145.945C1.99646 136.645 0 126.77 0 116.593V0L104.891 5.48789e-05H151V116.594C151 126.773 149.003 136.647 145.066 145.947C141.264 154.926 135.82 162.991 128.888 169.914C121.956 176.838 113.881 182.274 104.891 186.072C95.5797 190.004 85.6928 192 75.5022 192L75.4978 191.998Z" fill="url(#paint0_linear_21436_1164)"/>
<path d="M134.612 -16.0709C118.031 -16.0709 104.539 -2.51521 104.539 14.1447C104.539 30.8047 118.031 44.3603 134.612 44.3603C151.194 44.3603 164.686 30.8047 164.686 14.1447C164.686 -2.51521 151.196 -16.0709 134.612 -16.0709ZM160.417 14.0113L159.611 13.6087C149.062 8.35558 140.374 -0.373446 135.146 -10.9702L134.745 -11.7827C148.87 -11.7112 160.346 -0.180508 160.417 14.0113ZM134.612 30.7904C130.875 23.7481 125.054 17.8994 118.042 14.1447C125.054 10.3901 130.875 4.54137 134.612 -2.50332C138.349 4.53899 144.17 10.3877 151.179 14.1424C144.168 17.897 138.347 23.7457 134.61 30.7904H134.612ZM134.484 -11.7827L134.083 -10.9702C128.855 -0.371067 120.165 8.35796 109.615 13.6111L108.809 14.0137C108.88 -0.180506 120.357 -11.7112 134.484 -11.7827ZM108.809 14.2781L109.615 14.6808C120.165 19.9339 128.852 28.6629 134.081 39.2599L134.481 40.0722C120.357 40.0008 108.88 28.4699 108.806 14.2781H108.809ZM134.745 40.0722L135.146 39.2599C140.374 28.6606 149.064 19.9315 159.611 14.6784L160.417 14.2758C160.346 28.4699 148.87 40.0008 134.742 40.0722H134.745Z" fill="white"/>
<path d="M75.4982 182.592C66.5771 182.592 57.9214 180.858 49.7696 177.438C41.8988 174.136 34.8295 169.409 28.7607 163.39C22.6919 157.371 17.9263 150.359 14.5977 142.553C11.1508 134.467 9.40294 125.882 9.40294 117.034L9.40283 107.343H101.231H141.597V117.035C141.597 125.884 139.849 134.469 136.402 142.555C133.073 150.361 128.308 157.372 122.239 163.392C116.17 169.411 109.101 174.138 101.231 177.439C93.079 180.858 84.4233 182.594 75.5016 182.594L75.4982 182.592Z" fill="white"/>
<mask id="mask0_21436_1164" style="mask-type:luminance" maskUnits="userSpaceOnUse" x="48" y="117" width="55" height="26">
<path fill-rule="evenodd" clip-rule="evenodd" d="M48.1846 117.955H102.016V142.318H48.1846V117.955Z" fill="white"/>
</mask>
<g mask="url(#mask0_21436_1164)">
<path fill-rule="evenodd" clip-rule="evenodd" d="M96.4948 141.654C96.5385 142.021 96.2558 142.318 96.2558 142.318L95.9378 142.219C95.9378 142.219 93.597 141.393 89.9968 140.336C89.9968 140.336 86.8108 139.39 85.5166 138.964C85.5166 138.964 85.2383 138.857 84.6946 138.911C84.1509 138.964 82.2698 139.106 81.0319 139.236L79.1403 139.449C75.7231 139.842 74.1611 139.91 74.1611 139.91C68.7384 140.434 67.4403 140.532 67.4403 140.532C64.5773 140.741 62.7532 141.083 58.4704 141.362L50.4077 142.169C50.4077 142.169 49.833 142.232 49.8286 142.228L49.614 142.248C49.4364 142.13 49.4148 141.992 49.4148 141.992L49.4226 141.692C49.7633 141.569 49.3805 141.202 49.3805 141.202C49.2058 141.127 49.2633 140.999 49.2633 140.999C49.2655 140.974 49.2793 140.959 49.2887 140.942C49.3064 140.91 49.3429 140.86 49.3402 140.853C49.3014 140.756 49.4801 140.409 49.4801 140.409C49.3899 140.295 49.4253 140.315 49.3346 140.202C49.2766 140.129 49.25 139.912 49.2362 139.758C49.2268 139.65 49.4176 139.439 49.3673 139.381C49.2854 139.286 49.2013 139.2 49.1206 139.099C49.0935 139.066 49.0653 138.996 49.0553 138.943C49.0481 138.906 49.0658 138.855 49.0819 138.832C49.1394 138.751 49.1416 138.747 49.0691 138.616C49.042 138.566 49.0105 138.526 48.9818 138.48C48.9187 138.377 49.1239 138.149 49.1051 138C49.0957 137.932 49.0769 137.858 49.0559 137.791C49.0415 137.746 49.0266 137.684 49.0127 137.62C49.0077 137.607 49.0022 137.593 48.9972 137.579C48.984 137.541 48.9829 137.508 48.9889 137.481C48.9806 137.418 48.979 137.366 48.9851 137.33C48.9624 137.258 48.9397 137.186 48.9181 137.113C48.9015 137.056 48.9043 137.007 48.9259 136.974C48.932 136.965 48.9381 136.954 48.9458 136.95C48.9878 136.926 48.9729 136.825 48.9912 136.768C48.9823 136.758 48.974 136.747 48.9652 136.737C48.9364 136.701 48.9248 136.676 48.9342 136.649C48.9558 136.59 48.9353 136.503 48.9403 136.433C48.9464 136.349 48.9248 136.266 48.896 136.187C48.8822 136.15 48.8744 136.109 48.8639 136.07C48.8507 136.018 48.854 135.977 48.8689 135.951C48.8921 135.911 48.9181 135.878 48.9425 135.84C48.9596 135.814 48.9563 135.744 48.9342 135.692C48.9176 135.652 48.8988 135.614 48.88 135.577C48.8518 135.535 48.823 135.493 48.7931 135.457C48.7246 135.371 48.682 135.273 48.7019 135.154C48.7157 135.074 48.7002 135.032 48.656 134.982C48.6278 134.951 48.599 134.913 48.5763 134.869C48.4895 134.698 48.4945 134.646 48.5929 134.632C48.6825 134.62 48.698 134.597 48.6692 134.412C48.6416 134.236 48.6455 134.132 48.7367 134.107C48.7854 134.093 48.8291 134.038 48.8103 133.9C48.7909 133.76 48.8512 133.508 48.7716 133.475C48.6687 133.433 48.6576 133.256 48.6001 133.151C48.599 133.149 48.6073 133.111 48.6134 133.113C48.6289 133.12 48.6466 133.145 48.6621 133.151C48.682 133.159 48.7008 133.154 48.7196 133.155C48.7057 133.115 48.6947 133.06 48.677 133.036C48.62 132.961 48.6023 132.907 48.6029 132.782C48.6034 132.635 48.5929 132.441 48.464 132.333C48.4447 132.317 48.4198 132.216 48.417 132.164C48.4148 132.127 48.4436 132.097 48.464 132.084C48.4873 132.069 48.5194 132.084 48.5437 132.073C48.5669 132.064 48.5852 132.038 48.6051 132.019C48.5868 131.974 48.5713 131.918 48.5492 131.886C48.5133 131.833 48.4734 131.788 48.4342 131.753C48.3645 131.689 48.3291 131.575 48.375 131.524C48.4502 131.442 48.3899 131.373 48.3418 131.286C48.3158 131.239 48.2893 131.186 48.271 131.131C48.261 131.1 48.2633 131.035 48.2677 131.026C48.2843 130.996 48.3435 130.884 48.4812 130.891C48.5426 130.895 48.5503 130.81 48.5481 130.789C48.5304 130.743 48.3816 130.782 48.3612 130.764C48.3086 130.714 48.3661 130.697 48.3125 130.658C48.2588 130.62 48.1709 130.397 48.1864 130.325C48.1952 130.287 48.2312 130.278 48.2583 130.271C48.2987 130.261 48.3556 130.293 48.2848 130.136C48.2389 130.034 48.2594 130.076 48.2904 129.951C48.3058 129.889 48.3379 129.915 48.3147 129.843L48.3584 129.805C48.3584 129.805 49.0426 129.705 49.1388 129.695C49.3335 129.675 49.1704 129.411 49.1704 129.411C49.1151 129.056 49.1587 128.907 49.1549 128.859C49.1311 128.575 49.0321 128.533 48.9176 128.462C48.891 128.446 48.8562 128.337 48.8407 128.268C48.8357 128.243 48.8728 128.187 48.8977 128.188C48.9381 128.19 48.953 128.165 48.9972 128.189C49.0105 128.196 49.0227 128.136 49.0365 128.146C49.0332 128.115 49.0542 128.124 49.0443 128.106C49.0149 128.051 48.9917 128.092 48.9629 128.036C48.9381 127.988 48.9126 127.928 48.9032 127.874C48.8993 127.853 48.9369 127.822 48.9602 127.815C48.9995 127.807 49.0199 127.699 48.9773 127.586C48.9458 127.502 48.9408 127.506 48.9198 127.412C48.8861 127.257 48.9032 127.161 48.9629 127.103C49.0337 127.034 49.0266 126.964 48.9392 126.831C48.932 126.819 48.9248 126.806 48.9165 126.797C48.8794 126.758 48.8407 126.723 48.844 126.63C48.8479 126.523 48.9248 126.447 48.9574 126.454C48.9823 126.46 48.9961 126.401 48.9989 126.383C49.0166 126.264 49.0122 126.301 48.9812 126.237C48.9458 126.166 48.8667 126.167 48.7987 126.159C48.6659 126.143 48.6825 126.091 48.6106 125.997C48.5476 125.914 48.5271 125.883 48.5791 125.811C48.5929 125.793 48.6775 125.777 48.7013 125.78C48.7533 125.786 48.734 125.744 48.74 125.644C48.7417 125.617 48.75 125.594 48.7566 125.572C48.8092 125.403 48.8075 125.404 48.7478 125.146C48.7046 124.963 48.6742 124.792 48.745 124.668C48.7915 124.585 48.7572 124.313 48.8191 124.298C48.8556 124.289 48.8584 124.184 48.8673 124.128C48.8733 124.089 48.88 124.075 48.901 124.073C48.9148 124.072 48.9298 124.032 48.9375 124.009C48.953 123.959 48.8717 123.88 48.854 123.84C48.8219 123.769 48.7898 123.703 48.7539 123.64C48.7035 123.551 48.6648 123.479 48.74 123.446C48.7915 123.423 48.7771 123.314 48.7423 123.266C48.6643 123.158 48.6477 123.028 48.62 122.897C48.6167 122.881 48.6106 122.864 48.6095 122.849C48.6029 122.768 48.5138 122.696 48.5531 122.622C48.5741 122.582 48.6278 122.608 48.6587 122.582C48.7163 122.535 48.8407 122.465 48.7765 122.413C48.7566 122.397 48.7799 122.302 48.7644 122.279C48.7207 122.214 48.7035 122.161 48.656 122.119C48.5741 122.047 48.6106 122.08 48.552 121.944L48.5398 121.873C48.5166 121.799 48.6078 121.793 48.6078 121.793L49.484 121.684C49.484 121.684 51.7965 121.439 53.9825 121.222C53.9825 121.222 55.6551 121.058 62.6763 120.345C62.6763 120.345 65.6432 120.086 69.0255 119.631C69.0255 119.631 71.9835 119.277 78.08 118.785C78.08 118.785 82.2405 118.358 85.2339 117.993C85.2339 117.993 86.3318 117.822 87.0974 118.202C87.0974 118.202 91.9786 120.256 93.7043 120.911L101.9 124.433C102.109 124.545 101.972 124.636 101.972 124.636C101.959 124.656 101.933 124.664 101.913 124.675C101.874 124.697 101.801 124.727 101.801 124.735C101.812 124.827 101.815 124.934 101.856 125C101.93 125.121 101.89 125.094 101.965 125.214C102.013 125.292 101.954 125.48 101.904 125.613C101.87 125.705 101.511 125.827 101.555 125.889C101.627 125.993 101.705 126.088 101.772 126.195C101.794 126.231 101.803 126.297 101.793 126.344C101.786 126.377 101.739 126.414 101.707 126.429C101.591 126.481 101.586 126.483 101.628 126.613C101.644 126.662 101.67 126.705 101.689 126.752C101.731 126.856 101.344 126.987 101.305 127.116C101.287 127.176 101.281 127.243 101.28 127.305C101.28 127.346 101.274 127.402 101.264 127.46C101.265 127.472 101.266 127.485 101.267 127.498C101.269 127.534 101.255 127.562 101.235 127.583C101.218 127.637 101.197 127.682 101.174 127.709C101.172 127.776 101.172 127.843 101.17 127.91C101.167 127.962 101.141 128.002 101.097 128.023C101.084 128.03 101.072 128.036 101.059 128.038C100.99 128.045 100.966 128.135 100.915 128.176C100.922 128.187 100.93 128.199 100.937 128.21C100.962 128.248 100.966 128.272 100.941 128.291C100.883 128.337 100.874 128.422 100.831 128.478C100.774 128.553 100.793 128.638 100.789 128.719C100.787 128.744 100.784 128.769 100.781 128.795C100.776 128.842 100.754 128.875 100.721 128.892C100.672 128.919 100.62 128.939 100.57 128.964C100.535 128.981 100.509 129.039 100.516 129.09C100.521 129.128 100.53 129.165 100.54 129.201C100.56 129.245 100.582 129.287 100.607 129.327C100.663 129.417 100.679 129.512 100.598 129.605C100.544 129.668 100.546 129.708 100.586 129.762C100.611 129.796 100.635 129.835 100.646 129.879C100.69 130.047 100.66 130.089 100.518 130.072C100.389 130.056 100.356 130.071 100.314 130.233C100.274 130.387 100.223 130.474 100.084 130.468C100.012 130.465 99.9263 130.499 99.8914 130.619C99.856 130.741 99.877 130.892 99.9727 130.942C100.097 131.008 100.033 131.158 100.067 131.262C100.067 131.264 100.038 131.293 100.031 131.29C100.012 131.28 99.9998 131.253 99.9805 131.244C99.9567 131.232 99.9285 131.23 99.9025 131.224C99.9036 131.262 99.8948 131.31 99.9091 131.336C99.9539 131.414 99.955 131.465 99.8986 131.569C99.8322 131.691 99.7603 131.856 99.8909 131.982C99.9108 132.002 99.9003 132.093 99.8815 132.137C99.8682 132.168 99.8151 132.186 99.7803 132.191C99.7421 132.196 99.7039 132.175 99.6652 132.177C99.6293 132.178 99.5928 132.194 99.5562 132.204C99.5618 132.247 99.5585 132.297 99.5745 132.331C99.601 132.386 99.6364 132.435 99.6746 132.475C99.7432 132.549 99.7415 132.654 99.6553 132.683C99.5148 132.729 99.5673 132.804 99.5955 132.891C99.6105 132.938 99.6232 132.989 99.6237 133.041C99.6243 133.069 99.5966 133.127 99.5822 133.128C99.4705 133.142 99.3555 133.265 99.2459 133.162C99.2294 133.146 99.1956 133.157 99.1696 133.156C99.1735 133.199 99.1646 133.261 99.1846 133.282C99.2354 133.339 99.2996 133.376 99.3566 133.423C99.4141 133.47 99.4373 133.682 99.3831 133.736C99.3544 133.766 99.3007 133.763 99.2598 133.761C99.1995 133.758 99.1348 133.715 99.163 133.866C99.1812 133.965 99.1525 134.068 99.038 134.072C98.945 134.074 98.9356 134.175 98.9356 134.242C98.9356 134.391 98.882 134.48 98.7764 134.541C98.7227 134.573 98.6563 134.601 98.7614 134.661C98.8577 134.716 98.8991 134.814 98.8765 134.98C98.8582 135.115 98.8372 135.285 98.9644 135.377C98.9937 135.398 98.9932 135.5 98.9838 135.562C98.9805 135.583 98.9041 135.62 98.8698 135.612C98.8151 135.598 98.767 135.554 98.7172 135.522C98.7017 135.512 98.6879 135.499 98.6729 135.487C98.6641 135.513 98.6436 135.546 98.6491 135.565C98.6652 135.619 98.6967 135.665 98.7122 135.72C98.7249 135.767 98.7338 135.825 98.7227 135.872C98.7183 135.891 98.653 135.906 98.6176 135.904C98.5595 135.901 98.5258 135.893 98.5346 136C98.5407 136.079 98.5075 136.168 98.4943 136.252C98.4721 136.392 98.4058 136.467 98.2968 136.498C98.169 136.535 98.148 136.594 98.2089 136.732C98.2144 136.743 98.2188 136.756 98.226 136.765C98.2592 136.81 98.2974 136.849 98.2514 136.926C98.1989 137.014 98.169 136.939 98.1264 136.924C98.0949 136.911 98.0263 136.919 98.0214 136.935C97.9992 137.005 97.9732 137.093 97.9882 137.155C98.0048 137.225 98.0617 137.277 98.1049 137.332C98.1746 137.419 98.2592 137.491 98.3162 137.59C98.3671 137.677 98.3339 137.725 98.2398 137.721C98.2066 137.72 98.1735 137.715 98.1414 137.705C98.0722 137.685 98.0108 137.695 97.9577 137.778C97.9434 137.801 97.9223 137.817 97.9024 137.834C97.7553 137.959 97.7575 137.959 97.726 138.191C97.7039 138.356 97.6701 138.507 97.5175 138.591C97.4157 138.646 97.3427 138.882 97.2498 138.877C97.1956 138.874 97.1452 138.961 97.1082 139.005C97.0822 139.036 97.0667 139.046 97.0363 139.041C97.0169 139.038 96.9931 139.007 96.9721 139.025C96.929 139.061 96.9915 139.211 96.9986 139.249C97.0114 139.317 97.0269 139.381 97.0484 139.445C97.0783 139.533 97.0999 139.604 96.9809 139.61C96.8996 139.614 96.8709 139.71 96.898 139.76C96.9583 139.873 96.9234 139.986 96.9035 140.103C96.9007 140.117 96.9013 140.133 96.8969 140.145C96.8698 140.215 96.9616 140.301 96.8736 140.352C96.8266 140.378 96.7641 140.342 96.7099 140.354C96.6093 140.377 96.508 140.411 96.409 140.45C96.3963 140.455 96.3792 140.536 96.3897 140.559C96.4217 140.626 96.4605 140.692 96.508 140.741C96.5893 140.824 96.6408 140.93 96.6624 141.06C96.6784 141.159 96.6679 141.249 96.5882 141.329C96.4544 141.464 96.4948 141.654 96.4948 141.654Z" fill="#00FFD0"/>
</g>
<path fill-rule="evenodd" clip-rule="evenodd" d="M68.9213 127.817C68.3572 127.339 67.6038 127.075 66.7996 127.075C65.3576 127.075 64.2232 127.725 63.7702 128.789C63.2901 127.531 62.1363 127.075 61.1744 127.075C60.1069 127.075 59.2258 127.537 58.7667 128.323L58.5206 127.318H57.0703V136.952H58.8469V131.025C58.8469 129.606 59.655 128.689 60.9056 128.689C61.982 128.689 62.5998 129.35 62.5998 130.502V136.952H64.3758V131.025C64.3758 129.606 65.1839 128.689 66.4351 128.689C67.5114 128.689 68.1287 129.35 68.1287 130.502V136.952H69.9053V130.074C69.9053 129.144 69.5652 128.363 68.9213 127.817Z" fill="#333333"/>
<path fill-rule="evenodd" clip-rule="evenodd" d="M83.4018 127.817C82.8376 127.339 82.0843 127.075 81.28 127.075C79.8381 127.075 78.7031 127.725 78.2506 128.789C77.7705 127.531 76.6167 127.075 75.6549 127.075C74.5874 127.075 73.7063 127.537 73.2472 128.323L73.001 127.318H71.5508V136.952H73.3274V131.025C73.3274 129.606 74.1355 128.689 75.3861 128.689C76.4624 128.689 77.0803 129.35 77.0803 130.502V136.952H78.8563V131.025C78.8563 129.606 79.6644 128.689 80.9155 128.689C81.9919 128.689 82.6092 129.35 82.6092 130.502V136.952H84.3858V130.074C84.3858 129.144 84.0456 128.363 83.4018 127.817Z" fill="#333333"/>
<path fill-rule="evenodd" clip-rule="evenodd" d="M90.8223 135.594C89.3245 135.594 87.809 134.421 87.809 132.178C87.809 130.21 89.0761 128.781 90.8223 128.781C92.5464 128.781 93.7975 130.21 93.7975 132.178C93.7975 134.421 92.3008 135.594 90.8223 135.594ZM90.8035 127.075C89.4003 127.075 88.1939 127.595 87.3161 128.58C86.4876 129.509 86.0312 130.787 86.0312 132.178C86.0312 133.576 86.4876 134.857 87.3161 135.784C88.1923 136.763 89.3981 137.281 90.8035 137.281C93.5685 137.281 95.5752 135.135 95.5752 132.178C95.5752 129.221 93.5685 127.075 90.8035 127.075Z" fill="#333333"/>
<path fill-rule="evenodd" clip-rule="evenodd" d="M53.4502 124.188V137.281H55.4248V123.453L53.4502 124.188Z" fill="#333333"/>
<path fill-rule="evenodd" clip-rule="evenodd" d="M47.6287 149.477L47.4716 149.412C46.0391 148.819 45.0252 148.298 45.0252 146.98C45.0252 145.682 46.0313 145.003 47.0247 145.003C47.8267 145.003 48.8428 145.44 49.2388 146.399L50.9247 145.725L50.8993 145.661C50.2361 143.966 48.4849 143.207 47.0441 143.207C45.1574 143.207 43.1264 144.431 43.1264 147.117C43.1264 149.74 45.0811 150.556 46.6519 151.213L46.8444 151.294C48.449 151.974 49.5004 152.521 49.5004 153.863C49.5004 155.256 48.3621 155.879 47.2343 155.879C46.1193 155.879 44.7885 155.268 44.3958 153.552L44.3781 153.477L42.5898 154.174C43.1286 156.317 44.9068 157.694 47.158 157.694C48.2902 157.694 49.3439 157.339 50.1255 156.695C51.0088 155.966 51.4756 154.926 51.4756 153.687C51.4756 151.053 49.4319 150.215 47.6287 149.477Z" fill="#333333"/>
<path fill-rule="evenodd" clip-rule="evenodd" d="M91.2526 155.498C91.5225 155.277 91.7958 155.056 92.0696 154.836C94.5901 152.803 97.1964 150.7 97.1964 147.626C97.1964 145.218 95.5376 143.537 93.1631 143.537C91.0767 143.537 88.8311 144.999 88.8311 148.211C88.8311 148.366 88.8411 148.538 88.8565 148.645L90.5574 147.957C90.5574 146.191 91.8118 145.267 93.0508 145.267C94.2555 145.267 95.4707 146.069 95.4707 147.86C95.4707 150.179 93.2101 151.995 90.0817 154.509C89.6359 154.867 89.1713 155.24 88.6923 155.632L88.6641 155.654V157.365H97.5498V155.498H91.2526Z" fill="#333333"/>
<path fill-rule="evenodd" clip-rule="evenodd" d="M69.7997 152.262C69.7997 154.522 68.2897 155.705 66.7979 155.705C65.2874 155.705 63.758 154.522 63.758 152.262C63.758 150.277 65.0362 148.838 66.7979 148.838C68.5369 148.838 69.7997 150.277 69.7997 152.262ZM66.7791 147.158C64.0135 147.158 62.0068 149.305 62.0068 152.262C62.0068 155.218 64.0135 157.365 66.7791 157.365C69.5441 157.365 71.5508 155.218 71.5508 152.262C71.5508 149.305 69.5441 147.158 66.7791 147.158Z" fill="#333333"/>
<path fill-rule="evenodd" clip-rule="evenodd" d="M79.0571 153.036C79.0571 154.815 77.7473 155.775 76.5155 155.775C75.5774 155.775 74.5757 155.218 74.5757 153.655V147.488H72.8672V153.655C72.8672 156.394 74.6499 157.365 76.177 157.365C77.4049 157.365 78.4868 156.78 79.0482 155.824L79.374 157.14H80.7656V147.488H79.0571V153.036Z" fill="#333333"/>
<path fill-rule="evenodd" clip-rule="evenodd" d="M85.3625 144.195L83.6778 144.88V147.065H82.082V148.684H83.6778V154.199C83.6778 156.954 85.1645 157.365 86.0506 157.365C86.4444 157.365 86.8515 157.3 87.2951 157.167L87.3477 157.151V155.389L87.2359 155.465C86.976 155.641 86.6718 155.746 86.4218 155.746C85.7486 155.746 85.3625 155.232 85.3625 154.336V148.684H87.3477V147.065H85.3625V144.195Z" fill="#333333"/>
<path fill-rule="evenodd" clip-rule="evenodd" d="M106.138 152.231V148.196L104.381 148.889V152.231H100.437L105.246 143.866H103.295L98.208 152.691V154.043H104.381V157.365H106.138V154.043H108.41V152.231H106.138Z" fill="#333333"/>
<path fill-rule="evenodd" clip-rule="evenodd" d="M60.0914 154.184C59.582 155.115 58.6296 155.685 57.5587 155.685C56.0747 155.685 54.5763 154.621 54.5763 152.243C54.5763 150.603 55.474 148.838 57.4437 148.838C58.4254 148.838 59.2988 149.354 59.7612 150.197L61.4255 149.57L61.3962 149.508C60.7043 148.059 59.1899 147.158 57.4437 147.158C56.2141 147.158 55.0752 147.608 54.2373 148.425C53.2914 149.347 52.792 150.674 52.792 152.262C52.792 155.768 55.2235 157.365 57.4818 157.365C59.238 157.365 60.7939 156.424 61.644 154.849L61.6778 154.786L61.6634 154.78L60.0914 154.184Z" fill="#333333"/>
<path d="M35.4767 29.8308H45.7956V40.9452H43.4211L42.6882 37.2208H42.6296C42.014 39.5375 38.9652 41.3851 35.6819 41.3851C29.8482 41.3851 25.7441 36.8982 25.7441 30.5346C25.7441 24.1709 30.0828 19.6254 36.151 19.6254C38.7307 19.6254 41.6036 20.5345 42.6882 21.7369L40.5189 24.2002C39.4343 23.1445 38.0858 22.6753 36.151 22.6753C32.3107 22.6753 29.4085 26.0184 29.4085 30.4759C29.4085 34.9628 32.3107 38.3352 36.151 38.3352C39.4636 38.3352 41.6329 36.2238 42.1312 32.734H35.4767V29.8308ZM57.0504 41.3851C52.2134 41.3851 48.8129 37.954 48.8129 33.1446C48.8129 28.3058 52.2134 24.8747 57.0504 24.8747C61.9167 24.8747 65.3758 28.3058 65.3758 33.1446C65.3758 37.954 61.9167 41.3851 57.0504 41.3851ZM57.0504 38.5112C59.7767 38.5112 61.8287 36.1944 61.8287 33.1446C61.8287 30.036 59.7767 27.7486 57.0504 27.7486C54.3534 27.7486 52.36 30.036 52.36 33.1446C52.36 36.1944 54.3534 38.5112 57.0504 38.5112ZM68.5872 40.9452V20.0067L72.0171 19.3029V40.9452H68.5872ZM82.6523 41.3851C78.431 41.3851 75.2649 37.9246 75.2649 33.2619C75.2649 28.1005 78.3723 24.8747 82.7989 24.8747C85.2614 24.8747 87.2841 25.9598 88.017 27.602H88.0756V20.0067L91.5348 19.3029V40.9452H89.0137L88.2808 38.3939H88.2222C87.4307 40.0654 84.9389 41.3851 82.6523 41.3851ZM83.3266 38.5112C86.1408 38.5112 88.1342 36.2238 88.1342 33.0566C88.1342 29.8894 86.1701 27.7486 83.2973 27.7486C80.7469 27.7486 78.8121 30.036 78.8121 33.0566C78.8121 36.1651 80.7175 38.5112 83.3266 38.5112Z" fill="#333333"/>
<path d="M33.0438 49.0723C38.5844 49.0723 41.4572 51.0078 41.4572 55.5532C41.4572 60.3333 38.4671 62.1515 33.0438 62.1515H29.2329V69.7175H26.917V49.0723H33.0438ZM32.9266 60.216C36.972 60.216 39.0827 59.1603 39.0827 55.5532C39.0827 52.0342 36.8841 50.9784 32.8973 50.9784H29.2329V60.216H32.9266ZM57.0329 68.0753C57.5313 68.0753 57.971 67.8993 58.2641 67.7527V69.3949C57.8244 69.7175 57.1502 69.8641 56.5053 69.8641C54.6877 69.8641 53.8669 68.5738 53.8669 66.8729V66.7556H53.8083C53.0461 68.6618 51.1699 70.0988 48.4729 70.0988C45.3949 70.0988 43.4014 68.3392 43.4014 65.6413C43.4014 62.3568 46.3329 61.3597 50.6422 60.7439L53.7203 60.304V59.9814C53.7203 57.1368 52.6064 55.7585 49.968 55.7585C47.9746 55.7585 46.8313 56.609 45.9518 58.0752L44.2516 56.9609C45.219 55.1134 47.0658 53.8523 49.968 53.8523C53.8962 53.8523 55.8896 55.7292 55.8896 59.7175V66.2864C55.8896 67.6354 56.2707 68.0753 57.0329 68.0753ZM48.6781 68.1926C51.4044 68.1926 53.7203 66.521 53.7203 62.2688V61.9169L50.6716 62.3861C47.7401 62.7967 45.6587 63.3245 45.6587 65.524C45.6587 67.3128 46.8899 68.1926 48.6781 68.1926ZM60.8063 69.7175V54.3509H62.3306L62.8876 57.5767H62.9463C63.8843 54.7321 65.995 53.8523 67.6953 53.8523C68.6334 53.8523 69.1024 54.0283 69.2783 54.1163L68.9851 56.1397C68.6627 55.9638 68.1643 55.8465 67.4608 55.8465C64.7345 55.8465 63.0049 58.4858 63.0049 62.5034V69.7175H60.8063ZM77.8521 68.2219C78.6436 68.2219 79.3765 67.9873 79.9628 67.6647V69.5416C79.2006 69.8935 78.3212 70.0694 77.4417 70.0694C74.6861 70.0694 73.3083 68.6618 73.3083 65.3187V56.0224H70.6993V54.3509H73.3083V49.9227L75.5069 49.4535V54.3509H79.3472V56.0224H75.5069V65.0841C75.5069 67.2248 76.2105 68.2219 77.8521 68.2219ZM82.9928 69.7175V54.3509H84.5171L85.1034 57.1075H85.1621C86.0122 54.996 87.7418 53.8523 90.2629 53.8523C93.3996 53.8523 95.4809 55.7585 95.4809 59.7468V69.7175H93.2823V59.9814C93.2823 57.0782 92.0804 55.7585 89.7352 55.7585C87.0382 55.7585 85.1914 57.5474 85.1914 61.5943V69.7175H82.9928ZM113.892 61.8289V62.5621H101.287C101.463 65.8465 103.749 68.2512 106.769 68.2512C109.495 68.2512 110.844 66.9023 111.606 65.7879L113.218 66.9902C112.104 68.8084 110.052 70.1574 106.652 70.1574C102.166 70.1574 99.0004 66.7556 99.0004 62.0049C99.0004 57.2248 102.137 53.8523 106.564 53.8523C110.844 53.8523 113.892 57.1661 113.892 61.8289ZM106.564 55.7585C103.896 55.7585 101.785 57.87 101.375 60.8318H111.547C111.225 57.8993 109.202 55.7585 106.564 55.7585ZM117.404 69.7175V54.3509H118.928L119.485 57.5767H119.544C120.482 54.7321 122.592 53.8523 124.293 53.8523C125.231 53.8523 125.7 54.0283 125.876 54.1163L125.582 56.1397C125.26 55.9638 124.762 55.8465 124.058 55.8465C121.332 55.8465 119.602 58.4858 119.602 62.5034V69.7175H117.404Z" fill="#333333"/>
<path d="M51.5636 94.8159C49.8246 94.8159 48.5767 93.8731 48.1387 92.2663L49.0546 91.8546C49.3998 93.1958 50.2494 93.8864 51.5768 93.8864C52.7848 93.8864 53.5415 93.2224 53.5415 92.1733C53.5415 91.1906 53.1034 90.7657 51.2848 90.022C49.4263 89.2784 48.7493 88.5745 48.7493 87.4192C48.7493 86.0382 49.8378 85.0688 51.4308 85.0688C52.4131 85.0688 53.1167 85.3343 53.7141 85.9319L53.1698 86.7021C52.7317 86.2373 52.1476 85.9983 51.4043 85.9983C50.4352 85.9983 49.7715 86.5561 49.7715 87.3794C49.7715 88.123 50.2095 88.5347 51.6432 89.119C53.9265 90.0353 54.6167 90.7258 54.6167 92.0671C54.6167 93.7137 53.3955 94.8159 51.5636 94.8159ZM62.6739 91.0445V91.3765H56.9658C57.0455 92.8638 58.0809 93.9528 59.4482 93.9528C60.6827 93.9528 61.2934 93.3419 61.6385 92.8373L62.3686 93.3817C61.8642 94.2051 60.935 94.8159 59.3951 94.8159C57.3641 94.8159 55.9304 93.2755 55.9304 91.1242C55.9304 88.9597 57.3508 87.4325 59.3553 87.4325C61.2934 87.4325 62.6739 88.9331 62.6739 91.0445ZM59.3553 88.2957C58.1473 88.2957 57.1915 89.2518 57.0051 90.593H61.612C61.4659 89.2651 60.55 88.2957 59.3553 88.2957ZM64.768 86.3037C64.3698 86.3037 64.0512 85.9983 64.0512 85.5999C64.0512 85.2148 64.3698 84.8961 64.768 84.8961C65.153 84.8961 65.4583 85.2148 65.4583 85.5999C65.4583 85.9983 65.153 86.3037 64.768 86.3037ZM64.2636 94.6167V87.6583H65.2592V94.6167H64.2636ZM69.8047 93.9395C70.1631 93.9395 70.495 93.8332 70.7605 93.6872V94.5371C70.4153 94.6964 70.0171 94.7761 69.6188 94.7761C68.371 94.7761 67.7471 94.1387 67.7471 92.6248V88.4152H66.5657V87.6583H67.7471V85.653L68.7427 85.4406V87.6583H70.4817V88.4152H68.7427V92.5186C68.7427 93.488 69.0613 93.9395 69.8047 93.9395ZM76.5919 93.727H81.1452V94.6167H75.0521V93.9528L78.0123 91.0047C79.1274 89.9025 79.977 88.8933 79.977 87.6583C79.977 86.5428 79.2867 85.9983 78.1849 85.9983C77.3752 85.9983 76.8309 86.3037 76.353 86.9544L75.6362 86.3037C76.207 85.5468 77.0698 85.0688 78.2115 85.0688C79.8841 85.0688 81.0257 86.0116 81.0257 87.6583C81.0257 89.3448 79.8841 90.5134 78.915 91.4562L76.5919 93.727ZM85.9606 94.8159C83.6641 94.8159 82.5224 92.9834 82.5224 89.9423C82.5224 86.9013 83.6641 85.0688 85.9606 85.0688C88.204 85.0688 89.3589 86.9013 89.3589 89.9423C89.3589 92.9834 88.204 94.8159 85.9606 94.8159ZM85.9606 93.8864C87.5668 93.8864 88.3102 92.5053 88.3102 89.9423C88.3102 87.3927 87.5668 85.9983 85.9606 85.9983C84.3543 85.9983 83.5711 87.3927 83.5711 89.9423C83.5711 92.5053 84.3543 93.8864 85.9606 93.8864ZM92.3944 93.727H96.9476V94.6167H90.8545V93.9528L93.8148 91.0047C94.9299 89.9025 95.7794 88.8933 95.7794 87.6583C95.7794 86.5428 95.0892 85.9983 93.9874 85.9983C93.1776 85.9983 92.6333 86.3037 92.1554 86.9544L91.4386 86.3037C92.0094 85.5468 92.8723 85.0688 94.0139 85.0688C95.6865 85.0688 96.8281 86.0116 96.8281 87.6583C96.8281 89.3448 95.6865 90.5134 94.7175 91.4562L92.3944 93.727ZM104.792 91.5359V92.4123H103.438V94.6167H102.456V92.4123H97.7961V91.6952L101.925 85.2679H103.013L98.9776 91.5359H102.456V89.2651L103.438 89.0526V91.5359H104.792Z" fill="#333333"/>
</g>
<defs>
<linearGradient id="paint0_linear_21436_1164" x1="131.377" y1="-17.0818" x2="5.05067" y2="88.6982" gradientUnits="userSpaceOnUse">
<stop stop-color="#AD8B27"/>
<stop offset="0.479167" stop-color="#F7E582"/>
<stop offset="1" stop-color="#AD8B27"/>
</linearGradient>
<clipPath id="clip0_21436_1164">
<rect width="151" height="192" fill="white"/>
</clipPath>
</defs>
</svg>
