<svg width="22" height="22" viewBox="0 0 22 22" fill="none" xmlns="http://www.w3.org/2000/svg">
  <path d="M11 5C10.5142 4.98027 10.0312 5.08299 9.59554 5.29872C9.15982 5.51445 8.78534 5.83626 8.50653 6.23457C8.22771 6.63288 8.05352 7.09489 7.99995 7.57812C7.94639 8.06136 8.01518 8.5503 8.2 9H7V13H9V11H13V13L15 12V9H13.8C13.9848 8.5503 14.0536 8.06136 14 7.57812C13.9465 7.09489 13.7723 6.63288 13.4935 6.23457C13.2147 5.83626 12.8402 5.51445 12.4045 5.29872C11.9688 5.08299 11.4858 4.98027 11 5ZM10 8C10 7.73478 10.1054 7.48043 10.2929 7.29289C10.4804 7.10536 10.7348 7 11 7C11.2652 7 11.5196 7.10536 11.7071 7.29289C11.8946 7.48043 12 7.73478 12 8C12 8.26522 11.8946 8.51957 11.7071 8.70711C11.5196 8.89464 11.2652 9 11 9C10.7348 9 10.4804 8.89464 10.2929 8.70711C10.1054 8.51957 10 8.26522 10 8Z" fill="#333333"/>
  <path d="M19.1 12.9C19.7025 11.6889 20.0109 10.3527 20 9C20 6.61305 19.0518 4.32387 17.364 2.63604C15.6761 0.948211 13.3869 0 11 0C8.61305 0 6.32387 0.948211 4.63604 2.63604C2.94821 4.32387 2 6.61305 2 9C1.9891 10.3527 2.29745 11.6889 2.9 12.9L0 17L3 18L4 22L8 17.5C8.97043 17.8114 9.98103 17.9798 11 18C12.019 17.9798 13.0296 17.8114 14 17.5L18 22L19 18L22 17L19.1 12.9ZM4.9 18.3L4.6 16.6L3 16L4 14.7C4.63688 15.4371 5.37804 16.0772 6.2 16.6L4.9 18.3ZM4 9C4 7.61553 4.41054 6.26215 5.17971 5.11101C5.94888 3.95986 7.04213 3.06266 8.32122 2.53284C9.6003 2.00303 11.0078 1.86441 12.3656 2.1345C13.7235 2.4046 14.9708 3.07128 15.9497 4.05025C16.9287 5.02922 17.5954 6.2765 17.8655 7.63437C18.1356 8.99224 17.997 10.3997 17.4672 11.6788C16.9373 12.9579 16.0401 14.0511 14.889 14.8203C13.7378 15.5895 12.3845 16 11 16C9.14348 16 7.36301 15.2625 6.05025 13.9497C4.7375 12.637 4 10.8565 4 9ZM17.4 16.6L17.1 18.3L15.8 16.6C16.622 16.0772 17.3631 15.4371 18 14.7L19 16L17.4 16.6Z" fill="#333333"/>
</svg>
